<svg xmlns="http://www.w3.org/2000/svg" xmlns:xlink="http://www.w3.org/1999/xlink" width="500" zoomAndPan="magnify" viewBox="0 0 375 374.999991" height="500" preserveAspectRatio="xMidYMid meet" version="1.0"><defs><clipPath id="1e3de67d4e"><path d="M 184 112.5 L 195 112.5 L 195 118 L 184 118 Z M 184 112.5 " clip-rule="nonzero"/></clipPath><clipPath id="ec89f77ea8"><path d="M 257 184 L 262.5 184 L 262.5 195 L 257 195 Z M 257 184 " clip-rule="nonzero"/></clipPath><clipPath id="dfa9514a45"><path d="M 180 257 L 190 257 L 190 262.5 L 180 262.5 Z M 180 257 " clip-rule="nonzero"/></clipPath><clipPath id="12ecdcbf0d"><path d="M 112.5 180 L 118 180 L 118 190 L 112.5 190 Z M 112.5 180 " clip-rule="nonzero"/></clipPath><clipPath id="9d0d0562d4"><path d="M 194 194 L 262.5 194 L 262.5 262.5 L 194 262.5 Z M 194 194 " clip-rule="nonzero"/></clipPath></defs><rect x="-37.5" width="450" fill="#ffffff" y="-37.499999" height="449.999989" fill-opacity="1"/><rect x="-37.5" width="450" fill="#ffffff" y="-37.499999" height="449.999989" fill-opacity="1"/><rect x="-37.5" width="450" fill="#ffffff" y="-37.499999" height="449.999989" fill-opacity="1"/><path fill="#000000" d="M 212.109375 152.34375 C 212.109375 138.75 201.09375 127.734375 187.5 127.734375 C 173.90625 127.734375 162.890625 138.75 162.890625 152.34375 C 162.890625 165.9375 173.90625 176.953125 187.5 176.953125 C 201.09375 176.953125 212.109375 165.9375 212.109375 152.34375 Z M 212.109375 152.34375 " fill-opacity="1" fill-rule="nonzero"/><path fill="#000000" d="M 233.4375 131.132812 C 234.257812 130.078125 234.023438 128.671875 232.96875 127.851562 C 231.679688 126.914062 230.273438 125.859375 228.984375 125.039062 C 227.929688 124.335938 226.40625 124.570312 225.703125 125.742188 C 225 126.796875 225.234375 128.320312 226.40625 129.023438 C 227.695312 129.84375 228.984375 130.78125 230.15625 131.71875 C 231.09375 132.304688 232.617188 132.1875 233.4375 131.132812 Z M 233.4375 131.132812 " fill-opacity="1" fill-rule="nonzero"/><path fill="#000000" d="M 199.21875 115.78125 C 198.984375 117.070312 199.804688 118.242188 201.09375 118.476562 C 202.617188 118.710938 204.140625 119.0625 205.546875 119.53125 C 205.78125 119.53125 205.898438 119.648438 206.132812 119.648438 C 207.1875 119.648438 208.125 118.945312 208.359375 117.890625 C 208.710938 116.601562 207.890625 115.3125 206.71875 115.078125 C 205.078125 114.609375 203.554688 114.257812 201.914062 114.023438 C 200.625 113.671875 199.453125 114.492188 199.21875 115.78125 Z M 199.21875 115.78125 " fill-opacity="1" fill-rule="nonzero"/><path fill="#000000" d="M 212.929688 119.414062 C 212.460938 120.585938 213.046875 121.992188 214.21875 122.460938 C 215.625 123.046875 217.03125 123.632812 218.4375 124.335938 C 218.789062 124.453125 219.140625 124.570312 219.492188 124.570312 C 220.3125 124.570312 221.25 124.101562 221.601562 123.28125 C 222.1875 122.109375 221.71875 120.703125 220.546875 120.117188 C 219.023438 119.414062 217.617188 118.710938 216.09375 118.125 C 214.804688 117.65625 213.398438 118.242188 212.929688 119.414062 Z M 212.929688 119.414062 " fill-opacity="1" fill-rule="nonzero"/><g clip-path="url(#1e3de67d4e)"><path fill="#000000" d="M 187.265625 112.5 C 185.976562 112.5 184.921875 113.554688 184.921875 114.84375 C 184.921875 116.132812 185.976562 117.1875 187.265625 117.1875 L 187.5 117.1875 C 189.023438 117.1875 190.429688 117.1875 191.953125 117.304688 C 191.953125 117.304688 192.070312 117.304688 192.070312 117.304688 C 193.242188 117.304688 194.296875 116.367188 194.414062 115.078125 C 194.53125 113.789062 193.476562 112.617188 192.1875 112.617188 C 190.664062 112.5 189.023438 112.5 187.5 112.5 Z M 187.265625 112.5 " fill-opacity="1" fill-rule="nonzero"/></g><path fill="#000000" d="M 137.929688 131.25 C 136.757812 132.304688 135.46875 133.476562 134.414062 134.648438 C 133.476562 135.585938 133.476562 136.992188 134.414062 137.929688 C 134.882812 138.398438 135.46875 138.632812 136.054688 138.632812 C 136.640625 138.632812 137.226562 138.398438 137.695312 137.929688 C 138.75 136.875 139.921875 135.820312 141.09375 134.765625 C 142.03125 133.945312 142.148438 132.421875 141.328125 131.484375 C 140.390625 130.429688 138.867188 130.3125 137.929688 131.25 Z M 137.929688 131.25 " fill-opacity="1" fill-rule="nonzero"/><path fill="#000000" d="M 131.25 141.5625 C 130.195312 140.742188 128.789062 140.976562 127.96875 142.03125 C 127.03125 143.320312 125.976562 144.726562 125.15625 146.015625 C 124.453125 147.070312 124.6875 148.59375 125.859375 149.296875 C 126.210938 149.53125 126.679688 149.648438 127.148438 149.648438 C 127.851562 149.648438 128.671875 149.296875 129.140625 148.59375 C 129.960938 147.304688 130.898438 146.015625 131.835938 144.84375 C 132.421875 143.789062 132.1875 142.265625 131.25 141.5625 Z M 131.25 141.5625 " fill-opacity="1" fill-rule="nonzero"/><path fill="#000000" d="M 246.445312 144.960938 C 245.390625 145.664062 245.039062 147.1875 245.859375 148.242188 C 246.679688 149.53125 247.5 150.820312 248.320312 152.109375 C 248.90625 153.164062 250.429688 153.632812 251.484375 152.929688 C 252.65625 152.226562 253.007812 150.820312 252.304688 149.765625 C 251.484375 148.359375 250.664062 146.953125 249.726562 145.664062 C 249.023438 144.609375 247.5 144.257812 246.445312 144.960938 Z M 246.445312 144.960938 " fill-opacity="1" fill-rule="nonzero"/><g clip-path="url(#ec89f77ea8)"><path fill="#000000" d="M 262.382812 192.421875 C 262.5 190.664062 262.5 189.023438 262.5 187.265625 C 262.5 185.976562 261.445312 184.921875 260.15625 184.921875 C 258.867188 184.921875 257.8125 185.976562 257.8125 187.265625 C 257.8125 188.90625 257.8125 190.546875 257.695312 192.070312 C 257.578125 193.359375 258.632812 194.53125 259.921875 194.53125 C 261.09375 194.648438 262.265625 193.710938 262.382812 192.421875 Z M 262.382812 192.421875 " fill-opacity="1" fill-rule="nonzero"/></g><path fill="#000000" d="M 260.976562 172.617188 C 260.742188 171.328125 259.453125 170.507812 258.164062 170.742188 C 256.875 170.976562 256.054688 172.265625 256.289062 173.554688 C 256.640625 175.078125 256.875 176.601562 256.992188 178.125 C 257.109375 179.296875 258.164062 180.117188 259.335938 180.117188 C 260.742188 180.117188 261.796875 178.828125 261.679688 177.421875 C 261.5625 175.78125 261.328125 174.140625 260.976562 172.617188 Z M 260.976562 172.617188 " fill-opacity="1" fill-rule="nonzero"/><path fill="#000000" d="M 256.523438 201.210938 C 256.523438 201.328125 256.40625 201.5625 256.40625 201.679688 C 257.8125 203.085938 258.984375 204.609375 260.15625 206.25 C 260.507812 204.84375 260.859375 203.4375 261.09375 202.148438 C 261.328125 200.859375 260.507812 199.6875 259.21875 199.453125 C 257.929688 199.101562 256.757812 199.921875 256.523438 201.210938 Z M 256.523438 201.210938 " fill-opacity="1" fill-rule="nonzero"/><path fill="#000000" d="M 254.0625 164.648438 C 254.414062 165.585938 255.351562 166.289062 256.289062 166.289062 C 257.929688 166.289062 258.984375 164.648438 258.515625 163.125 C 257.929688 161.601562 257.34375 160.078125 256.757812 158.554688 C 256.289062 157.382812 254.882812 156.796875 253.710938 157.265625 C 252.539062 157.734375 251.953125 159.140625 252.421875 160.3125 C 253.007812 161.71875 253.476562 163.242188 254.0625 164.648438 Z M 254.0625 164.648438 " fill-opacity="1" fill-rule="nonzero"/><path fill="#000000" d="M 119.414062 161.953125 C 119.648438 162.070312 120 162.1875 120.351562 162.1875 C 121.289062 162.1875 122.109375 161.601562 122.578125 160.78125 C 123.164062 159.375 123.75 157.96875 124.453125 156.5625 C 125.039062 155.390625 124.570312 153.984375 123.398438 153.398438 C 122.226562 152.8125 120.820312 153.28125 120.234375 154.453125 C 119.53125 155.859375 118.828125 157.382812 118.242188 158.90625 C 117.65625 160.078125 118.242188 161.484375 119.414062 161.953125 Z M 119.414062 161.953125 " fill-opacity="1" fill-rule="nonzero"/><path fill="#000000" d="M 240.234375 140.976562 C 241.054688 141.914062 242.578125 142.03125 243.515625 141.210938 C 244.453125 140.390625 244.570312 138.867188 243.75 137.929688 C 242.695312 136.757812 241.523438 135.46875 240.351562 134.414062 C 239.414062 133.476562 238.007812 133.476562 237.070312 134.414062 C 236.132812 135.351562 236.132812 136.757812 237.070312 137.695312 C 238.125 138.75 239.179688 139.804688 240.234375 140.976562 Z M 240.234375 140.976562 " fill-opacity="1" fill-rule="nonzero"/><path fill="#000000" d="M 115.195312 194.765625 C 113.90625 194.882812 112.96875 196.054688 113.203125 197.34375 C 113.4375 198.984375 113.671875 200.625 114.023438 202.148438 C 114.257812 203.320312 115.195312 204.023438 116.367188 204.023438 C 116.484375 204.023438 116.71875 204.023438 116.835938 204.023438 C 118.125 203.789062 118.945312 202.5 118.710938 201.210938 C 118.359375 199.6875 118.125 198.164062 118.007812 196.640625 C 117.65625 195.46875 116.484375 194.648438 115.195312 194.765625 Z M 115.195312 194.765625 " fill-opacity="1" fill-rule="nonzero"/><path fill="#000000" d="M 168.164062 260.039062 C 169.6875 260.507812 171.328125 260.859375 172.96875 261.09375 C 174.257812 261.328125 175.429688 260.507812 175.664062 259.21875 C 175.898438 257.929688 175.078125 256.757812 173.789062 256.523438 C 172.265625 256.171875 170.742188 255.9375 169.335938 255.46875 C 168.046875 255.117188 166.757812 255.9375 166.523438 257.109375 C 166.171875 258.398438 166.875 259.6875 168.164062 260.039062 Z M 168.164062 260.039062 " fill-opacity="1" fill-rule="nonzero"/><path fill="#000000" d="M 157.382812 121.289062 C 157.734375 122.226562 158.671875 122.695312 159.492188 122.695312 C 159.84375 122.695312 160.078125 122.695312 160.429688 122.460938 C 161.835938 121.875 163.242188 121.289062 164.765625 120.820312 C 165.9375 120.351562 166.640625 119.0625 166.171875 117.890625 C 165.703125 116.71875 164.414062 116.015625 163.242188 116.484375 C 161.71875 116.953125 160.195312 117.539062 158.671875 118.242188 C 157.382812 118.710938 156.914062 120.117188 157.382812 121.289062 Z M 157.382812 121.289062 " fill-opacity="1" fill-rule="nonzero"/><path fill="#000000" d="M 156.445312 250.664062 C 155.273438 250.078125 153.867188 250.546875 153.28125 251.71875 C 152.695312 252.890625 153.164062 254.296875 154.335938 254.882812 C 155.859375 255.585938 157.265625 256.289062 158.789062 256.875 C 159.960938 257.34375 161.367188 256.757812 161.835938 255.585938 C 162.304688 254.414062 161.71875 253.007812 160.546875 252.539062 C 159.257812 251.953125 157.851562 251.25 156.445312 250.664062 Z M 156.445312 250.664062 " fill-opacity="1" fill-rule="nonzero"/><path fill="#000000" d="M 115.78125 175.78125 C 115.898438 175.78125 116.132812 175.78125 116.25 175.78125 C 117.304688 175.78125 118.359375 174.960938 118.59375 173.90625 C 118.828125 172.382812 119.179688 170.859375 119.648438 169.453125 C 120 168.164062 119.179688 166.875 118.007812 166.640625 C 116.71875 166.289062 115.429688 167.109375 115.195312 168.28125 C 114.726562 169.804688 114.375 171.445312 114.140625 173.085938 C 113.671875 174.257812 114.492188 175.546875 115.78125 175.78125 Z M 115.78125 175.78125 " fill-opacity="1" fill-rule="nonzero"/><path fill="#000000" d="M 197.34375 261.914062 C 198.984375 261.679688 200.625 261.445312 202.148438 261.09375 C 203.320312 260.859375 204.140625 259.6875 204.023438 258.515625 C 203.203125 257.929688 202.5 257.226562 201.796875 256.523438 C 201.679688 256.523438 201.445312 256.523438 201.328125 256.523438 C 199.804688 256.875 198.28125 257.109375 196.757812 257.226562 C 195.46875 257.34375 194.53125 258.515625 194.765625 259.804688 C 194.882812 261.09375 196.054688 262.03125 197.34375 261.914062 Z M 197.34375 261.914062 " fill-opacity="1" fill-rule="nonzero"/><g clip-path="url(#dfa9514a45)"><path fill="#000000" d="M 187.5 257.8125 C 185.976562 257.8125 184.453125 257.8125 182.929688 257.695312 C 181.640625 257.578125 180.46875 258.632812 180.46875 259.921875 C 180.351562 261.210938 181.40625 262.382812 182.695312 262.382812 C 184.335938 262.5 185.859375 262.5 187.5 262.5 C 188.789062 262.5 189.960938 261.445312 189.960938 260.15625 C 189.960938 258.867188 188.90625 257.8125 187.5 257.8125 Z M 187.5 257.8125 " fill-opacity="1" fill-rule="nonzero"/></g><path fill="#000000" d="M 170.859375 116.71875 C 171.09375 117.890625 172.03125 118.59375 173.203125 118.59375 C 173.320312 118.59375 173.554688 118.59375 173.671875 118.59375 C 175.195312 118.242188 176.71875 118.007812 178.242188 117.890625 C 179.53125 117.773438 180.46875 116.484375 180.234375 115.3125 C 180.117188 114.023438 178.945312 113.085938 177.65625 113.320312 C 176.015625 113.554688 174.375 113.789062 172.851562 114.140625 C 171.445312 114.257812 170.625 115.429688 170.859375 116.71875 Z M 170.859375 116.71875 " fill-opacity="1" fill-rule="nonzero"/><path fill="#000000" d="M 146.953125 129.492188 C 147.421875 129.492188 147.890625 129.375 148.242188 129.140625 C 149.53125 128.320312 150.820312 127.5 152.109375 126.679688 C 153.28125 125.976562 153.632812 124.570312 152.929688 123.515625 C 152.226562 122.34375 150.820312 121.992188 149.765625 122.695312 C 148.359375 123.515625 146.953125 124.335938 145.664062 125.273438 C 144.609375 125.976562 144.257812 127.5 145.078125 128.554688 C 145.546875 129.140625 146.25 129.492188 146.953125 129.492188 Z M 146.953125 129.492188 " fill-opacity="1" fill-rule="nonzero"/><path fill="#000000" d="M 118.242188 216.328125 C 118.59375 217.265625 119.53125 217.734375 120.351562 217.734375 C 120.703125 217.734375 120.9375 217.734375 121.289062 217.5 C 122.460938 217.03125 123.046875 215.625 122.578125 214.453125 C 121.992188 213.046875 121.40625 211.640625 120.9375 210.117188 C 120.46875 208.945312 119.179688 208.242188 118.007812 208.710938 C 116.835938 209.179688 116.132812 210.46875 116.601562 211.640625 C 117.070312 213.28125 117.65625 214.804688 118.242188 216.328125 Z M 118.242188 216.328125 " fill-opacity="1" fill-rule="nonzero"/><g clip-path="url(#12ecdcbf0d)"><path fill="#000000" d="M 114.84375 189.960938 C 116.132812 189.960938 117.1875 188.90625 117.1875 187.617188 L 117.1875 187.5 C 117.1875 185.976562 117.1875 184.453125 117.304688 183.046875 C 117.421875 181.757812 116.367188 180.585938 115.078125 180.585938 C 113.789062 180.46875 112.617188 181.523438 112.617188 182.8125 C 112.5 184.335938 112.5 185.859375 112.5 187.5 L 112.5 187.617188 C 112.5 188.90625 113.554688 189.960938 114.84375 189.960938 Z M 114.84375 189.960938 " fill-opacity="1" fill-rule="nonzero"/></g><path fill="#000000" d="M 125.15625 229.21875 C 125.625 229.921875 126.328125 230.273438 127.148438 230.273438 C 127.617188 230.273438 128.085938 230.15625 128.4375 229.921875 C 129.492188 229.21875 129.84375 227.695312 129.023438 226.640625 C 128.203125 225.351562 127.382812 224.0625 126.5625 222.773438 C 125.859375 221.601562 124.453125 221.25 123.398438 221.953125 C 122.226562 222.65625 121.875 224.0625 122.578125 225.117188 C 123.398438 226.523438 124.335938 227.929688 125.15625 229.21875 Z M 125.15625 229.21875 " fill-opacity="1" fill-rule="nonzero"/><path fill="#000000" d="M 134.53125 240.585938 C 135.46875 241.523438 136.992188 241.523438 137.8125 240.585938 C 138.75 239.648438 138.75 238.242188 137.8125 237.304688 C 136.757812 236.25 135.703125 235.078125 134.648438 233.90625 C 133.828125 232.96875 132.304688 232.851562 131.367188 233.671875 C 130.429688 234.492188 130.3125 236.015625 131.132812 236.953125 C 132.304688 238.242188 133.359375 239.414062 134.53125 240.585938 Z M 134.53125 240.585938 " fill-opacity="1" fill-rule="nonzero"/><path fill="#000000" d="M 144.726562 243.28125 C 143.671875 242.460938 142.265625 242.695312 141.445312 243.75 C 140.625 244.804688 140.859375 246.210938 141.914062 247.03125 C 143.203125 247.96875 144.609375 249.023438 145.898438 249.84375 C 146.953125 250.546875 148.476562 250.3125 149.179688 249.140625 C 149.882812 248.085938 149.648438 246.5625 148.476562 245.859375 C 147.1875 245.15625 146.015625 244.21875 144.726562 243.28125 Z M 144.726562 243.28125 " fill-opacity="1" fill-rule="nonzero"/><path fill="#000000" d="M 204.726562 182.929688 L 223.125 186.5625 C 225 186.796875 226.40625 188.203125 226.640625 189.84375 C 227.226562 189.84375 227.929688 189.84375 228.515625 189.84375 C 229.453125 189.84375 230.507812 189.84375 231.445312 189.960938 L 231.328125 189.257812 C 230.859375 185.507812 227.8125 182.578125 224.0625 181.992188 L 205.78125 178.359375 C 204.84375 178.242188 204.023438 177.65625 203.4375 177.070312 C 202.148438 177.890625 200.742188 178.710938 199.21875 179.296875 C 200.390625 181.171875 202.382812 182.578125 204.726562 182.929688 Z M 204.726562 182.929688 " fill-opacity="1" fill-rule="nonzero"/><path fill="#000000" d="M 191.015625 219.140625 L 142.03125 219.140625 C 142.03125 219.140625 141.914062 219.140625 141.914062 219.023438 C 141.796875 218.90625 141.914062 218.90625 141.914062 218.789062 L 148.476562 190.078125 C 148.476562 189.960938 148.476562 189.960938 148.476562 189.84375 C 148.710938 188.203125 150.117188 186.796875 151.992188 186.445312 L 170.273438 182.8125 C 172.617188 182.34375 174.609375 181.054688 176.015625 179.0625 C 174.492188 178.476562 173.085938 177.65625 171.796875 176.835938 C 171.210938 177.539062 170.390625 178.007812 169.453125 178.242188 L 151.171875 181.992188 C 147.304688 182.578125 144.257812 185.625 143.789062 189.257812 L 137.226562 217.851562 C 136.875 219.257812 137.226562 220.78125 138.164062 221.953125 C 139.101562 223.125 140.507812 223.828125 142.03125 223.828125 L 190.195312 223.828125 C 190.3125 222.1875 190.664062 220.664062 191.015625 219.140625 Z M 191.015625 219.140625 " fill-opacity="1" fill-rule="nonzero"/><g clip-path="url(#9d0d0562d4)"><path fill="#000000" d="M 228.515625 194.53125 C 209.765625 194.53125 194.53125 209.765625 194.53125 228.515625 C 194.53125 247.265625 209.765625 262.5 228.515625 262.5 C 247.265625 262.5 262.5 247.265625 262.5 228.515625 C 262.5 209.765625 247.265625 194.53125 228.515625 194.53125 Z M 245.625 217.03125 L 225.703125 242.8125 C 225.234375 243.398438 224.53125 243.75 223.828125 243.75 C 223.359375 243.75 222.890625 243.632812 222.421875 243.28125 L 209.53125 233.554688 C 208.476562 232.734375 208.242188 231.328125 209.0625 230.273438 C 209.882812 229.21875 211.289062 228.984375 212.34375 229.804688 L 223.359375 238.125 L 241.875 214.21875 C 242.695312 213.164062 244.101562 213.046875 245.15625 213.75 C 246.210938 214.570312 246.445312 215.976562 245.625 217.03125 Z M 245.625 217.03125 " fill-opacity="1" fill-rule="nonzero"/></g><path fill="#000000" d="M 191.484375 181.40625 C 190.195312 181.523438 188.789062 181.640625 187.5 181.640625 C 186.210938 181.640625 184.804688 181.523438 183.515625 181.40625 L 180.585938 200.273438 C 180.46875 200.976562 180.703125 201.5625 181.054688 202.148438 L 185.625 207.65625 C 186.5625 208.828125 188.320312 208.828125 189.257812 207.65625 L 193.828125 202.148438 C 194.296875 201.679688 194.414062 200.976562 194.296875 200.273438 Z M 191.484375 181.40625 " fill-opacity="1" fill-rule="nonzero"/></svg>