<svg xmlns="http://www.w3.org/2000/svg" xmlns:xlink="http://www.w3.org/1999/xlink" width="500" zoomAndPan="magnify" viewBox="0 0 375 374.999991" height="500" preserveAspectRatio="xMidYMid meet" version="1.0"><defs><clipPath id="7ac251f862"><path d="M 101 104 L 198 104 L 198 203.273438 L 101 203.273438 Z M 101 104 " clip-rule="nonzero"/></clipPath><clipPath id="e5b06f2104"><path d="M 175 58.523438 L 181 58.523438 L 181 77 L 175 77 Z M 175 58.523438 " clip-rule="nonzero"/></clipPath><clipPath id="ed42a95c71"><path d="M 233 124 L 250.882812 124 L 250.882812 131 L 233 131 Z M 233 124 " clip-rule="nonzero"/></clipPath></defs><g clip-path="url(#7ac251f862)"><path fill="#282828" d="M 193.113281 192.039062 L 193.136719 192.039062 Z M 118.421875 109.714844 C 117.554688 109.714844 116.734375 110.101562 115.855469 110.871094 C 115.71875 111 114.09375 112.539062 113.230469 113.359375 L 112.683594 113.875 C 108.15625 118.097656 106.109375 125.703125 107.464844 133.265625 C 107.90625 135.722656 108.613281 138.273438 109.570312 140.839844 C 114.417969 153.824219 123.628906 165.128906 130.507812 172.324219 C 137.347656 179.570312 148.171875 189.351562 160.914062 194.878906 C 163.425781 195.96875 165.941406 196.808594 168.378906 197.382812 C 175.875 199.132812 183.601562 197.503906 188.0625 193.226562 L 188.660156 192.660156 C 189.515625 191.851562 191.039062 190.414062 191.265625 190.195312 C 193.882812 187.503906 192.488281 185.191406 187.003906 179.621094 L 185.582031 178.164062 C 182.03125 174.492188 176.089844 168.3125 171.148438 168.921875 C 169.851562 169.074219 168.441406 170.058594 166.945312 171.097656 C 165.476562 172.125 163.808594 173.285156 161.867188 173.898438 C 156.691406 175.527344 151.433594 174.457031 147.078125 170.875 C 144.515625 168.769531 141.910156 166.304688 139.539062 163.753906 C 137.152344 161.296875 134.828125 158.570312 132.855469 155.90625 C 129.503906 151.371094 128.707031 146.078125 130.621094 141.003906 C 131.339844 139.109375 132.589844 137.507812 133.695312 136.101562 C 134.816406 134.664062 135.875 133.3125 136.097656 132.027344 C 136.945312 127.140625 131.105469 120.886719 127.613281 117.152344 L 126.234375 115.664062 C 122.578125 111.664062 120.375 109.714844 118.421875 109.714844 Z M 174.4375 203.28125 C 171.867188 203.28125 169.390625 202.972656 167.1875 202.457031 C 164.445312 201.816406 161.632812 200.875 158.828125 199.660156 C 145.273438 193.78125 133.882812 183.503906 126.714844 175.914062 C 119.511719 168.375 109.832031 156.472656 104.675781 142.660156 C 103.609375 139.796875 102.816406 136.945312 102.320312 134.179688 C 101.003906 126.816406 102.09375 116.613281 109.113281 110.074219 L 109.628906 109.578125 C 110.566406 108.695312 112.351562 107 112.421875 106.941406 C 119.578125 100.671875 125.90625 107.574219 130.09375 112.144531 L 131.4375 113.597656 C 135.585938 118.042969 142.539062 125.476562 141.25 132.917969 C 140.800781 135.492188 139.210938 137.519531 137.8125 139.308594 C 136.855469 140.535156 135.949219 141.6875 135.511719 142.84375 C 134.226562 146.253906 134.761719 149.703125 137.058594 152.808594 C 138.894531 155.289062 141.0625 157.832031 143.332031 160.167969 C 145.585938 162.59375 148.019531 164.894531 150.402344 166.851562 C 153.390625 169.308594 156.816406 170.027344 160.292969 168.929688 C 161.472656 168.554688 162.679688 167.714844 163.953125 166.824219 C 165.820312 165.523438 167.9375 164.050781 170.535156 163.746094 C 178.050781 162.859375 185.117188 170.175781 189.34375 174.546875 L 190.730469 175.96875 C 195.078125 180.382812 201.652344 187.050781 194.980469 193.859375 C 194.980469 193.863281 194.976562 193.867188 194.976562 193.867188 C 194.914062 193.929688 193.191406 195.558594 192.25 196.445312 L 191.675781 196.988281 C 186.847656 201.621094 180.382812 203.28125 174.4375 203.28125 " fill-opacity="1" fill-rule="nonzero"/></g><g clip-path="url(#e5b06f2104)"><path fill="#282828" d="M 178.359375 76.019531 C 176.917969 76.019531 175.75 74.855469 175.75 73.414062 L 175.75 61.144531 C 175.75 59.703125 176.917969 58.539062 178.359375 58.539062 C 179.800781 58.539062 180.972656 59.703125 180.972656 61.144531 L 180.972656 73.414062 C 180.972656 74.855469 179.800781 76.019531 178.359375 76.019531 " fill-opacity="1" fill-rule="nonzero"/></g><path fill="#282828" d="M 167.484375 78.101562 C 166.277344 78.101562 165.195312 77.265625 164.933594 76.039062 L 162.375 64.035156 C 162.078125 62.628906 162.976562 61.242188 164.386719 60.945312 C 165.796875 60.640625 167.1875 61.542969 167.484375 62.953125 L 170.042969 74.953125 C 170.34375 76.363281 169.441406 77.746094 168.03125 78.046875 C 167.847656 78.082031 167.667969 78.101562 167.484375 78.101562 " fill-opacity="1" fill-rule="nonzero"/><path fill="#282828" d="M 157.289062 82.398438 C 156.289062 82.398438 155.332031 81.816406 154.902344 80.847656 L 149.898438 69.640625 C 149.3125 68.324219 149.902344 66.785156 151.222656 66.199219 C 152.542969 65.617188 154.085938 66.207031 154.671875 67.519531 L 159.675781 78.726562 C 160.261719 80.042969 159.667969 81.582031 158.347656 82.167969 C 158.003906 82.320312 157.644531 82.398438 157.289062 82.398438 " fill-opacity="1" fill-rule="nonzero"/><path fill="#282828" d="M 148.207031 88.710938 C 147.398438 88.710938 146.601562 88.339844 146.089844 87.636719 L 138.859375 77.707031 C 138.011719 76.542969 138.273438 74.914062 139.4375 74.066406 C 140.609375 73.21875 142.238281 73.480469 143.085938 74.644531 L 150.316406 84.570312 C 151.164062 85.734375 150.90625 87.367188 149.738281 88.210938 C 149.277344 88.546875 148.738281 88.710938 148.207031 88.710938 " fill-opacity="1" fill-rule="nonzero"/><path fill="#282828" d="M 140.632812 96.769531 C 140.011719 96.769531 139.386719 96.550781 138.886719 96.101562 L 129.746094 87.890625 C 128.671875 86.925781 128.589844 85.28125 129.550781 84.210938 C 130.519531 83.140625 132.171875 83.054688 133.242188 84.015625 L 142.382812 92.226562 C 143.457031 93.191406 143.542969 94.835938 142.578125 95.90625 C 142.0625 96.480469 141.347656 96.769531 140.632812 96.769531 " fill-opacity="1" fill-rule="nonzero"/><path fill="#282828" d="M 213.425781 186.140625 C 212.425781 186.140625 211.472656 185.566406 211.039062 184.59375 L 206.035156 173.382812 C 205.449219 172.070312 206.042969 170.527344 207.359375 169.945312 C 208.679688 169.359375 210.222656 169.949219 210.808594 171.265625 L 215.8125 182.472656 C 216.398438 183.789062 215.804688 185.332031 214.488281 185.917969 C 214.140625 186.070312 213.78125 186.140625 213.425781 186.140625 " fill-opacity="1" fill-rule="nonzero"/><path fill="#282828" d="M 224.738281 178.542969 C 223.929688 178.542969 223.132812 178.171875 222.621094 177.46875 L 215.390625 167.542969 C 214.542969 166.378906 214.804688 164.746094 215.96875 163.902344 C 217.140625 163.054688 218.773438 163.316406 219.621094 164.480469 L 226.847656 174.40625 C 227.699219 175.570312 227.4375 177.199219 226.269531 178.046875 C 225.808594 178.382812 225.269531 178.542969 224.738281 178.542969 " fill-opacity="1" fill-rule="nonzero"/><path fill="#282828" d="M 234.214844 168.765625 C 233.589844 168.765625 232.964844 168.546875 232.46875 168.097656 L 223.328125 159.886719 C 222.253906 158.925781 222.167969 157.277344 223.132812 156.207031 C 224.097656 155.140625 225.753906 155.050781 226.824219 156.011719 L 235.960938 164.222656 C 237.035156 165.1875 237.121094 166.835938 236.15625 167.902344 C 235.640625 168.476562 234.929688 168.765625 234.214844 168.765625 " fill-opacity="1" fill-rule="nonzero"/><path fill="#282828" d="M 241.449219 157.238281 C 241.003906 157.238281 240.558594 157.125 240.144531 156.886719 L 229.492188 150.753906 C 228.242188 150.03125 227.816406 148.441406 228.539062 147.191406 C 229.257812 145.945312 230.851562 145.519531 232.105469 146.238281 L 242.753906 152.371094 C 244.007812 153.09375 244.433594 154.6875 243.710938 155.933594 C 243.226562 156.769531 242.351562 157.238281 241.449219 157.238281 " fill-opacity="1" fill-rule="nonzero"/><path fill="#282828" d="M 246.125 144.460938 C 245.855469 144.460938 245.585938 144.417969 245.316406 144.332031 L 233.621094 140.539062 C 232.246094 140.09375 231.496094 138.625 231.941406 137.253906 C 232.386719 135.886719 233.863281 135.140625 235.234375 135.582031 L 246.933594 139.375 C 248.304688 139.820312 249.054688 141.289062 248.609375 142.660156 C 248.25 143.757812 247.226562 144.460938 246.125 144.460938 " fill-opacity="1" fill-rule="nonzero"/><g clip-path="url(#ed42a95c71)"><path fill="#282828" d="M 248.039062 130.988281 C 247.945312 130.988281 247.851562 130.984375 247.761719 130.972656 L 235.527344 129.691406 C 234.09375 129.542969 233.050781 128.257812 233.203125 126.828125 C 233.355469 125.394531 234.636719 124.367188 236.074219 124.507812 L 248.304688 125.792969 C 249.742188 125.941406 250.78125 127.222656 250.632812 128.65625 C 250.492188 129.996094 249.355469 130.988281 248.039062 130.988281 " fill-opacity="1" fill-rule="nonzero"/></g><path fill="#282828" d="M 234.859375 118.703125 C 233.539062 118.703125 232.40625 117.707031 232.265625 116.367188 C 232.113281 114.9375 233.15625 113.652344 234.589844 113.503906 L 246.824219 112.21875 C 248.265625 112.078125 249.542969 113.109375 249.695312 114.539062 C 249.84375 115.972656 248.800781 117.253906 247.367188 117.402344 L 235.136719 118.6875 C 235.042969 118.695312 234.953125 118.703125 234.859375 118.703125 " fill-opacity="1" fill-rule="nonzero"/><path fill="#282828" d="M 231.652344 108.132812 C 230.546875 108.132812 229.527344 107.433594 229.164062 106.332031 C 228.71875 104.960938 229.46875 103.492188 230.84375 103.046875 L 242.539062 99.253906 C 243.914062 98.8125 245.386719 99.5625 245.832031 100.929688 C 246.277344 102.296875 245.527344 103.769531 244.15625 104.210938 L 232.457031 108.003906 C 232.191406 108.09375 231.914062 108.132812 231.652344 108.132812 " fill-opacity="1" fill-rule="nonzero"/><path fill="#282828" d="M 226.308594 98.457031 C 225.402344 98.457031 224.527344 97.992188 224.039062 97.15625 C 223.320312 95.90625 223.75 94.316406 225 93.59375 L 235.648438 87.460938 C 236.898438 86.738281 238.496094 87.167969 239.21875 88.414062 C 239.9375 89.660156 239.511719 91.253906 238.261719 91.976562 L 227.609375 98.109375 C 227.199219 98.347656 226.75 98.457031 226.308594 98.457031 " fill-opacity="1" fill-rule="nonzero"/><path fill="#282828" d="M 219.0625 90.105469 C 218.347656 90.105469 217.632812 89.816406 217.121094 89.246094 C 216.15625 88.175781 216.242188 86.527344 217.3125 85.5625 L 226.453125 77.351562 C 227.527344 76.390625 229.175781 76.472656 230.140625 77.546875 C 231.109375 78.613281 231.019531 80.261719 229.949219 81.226562 L 220.808594 89.4375 C 220.308594 89.882812 219.683594 90.105469 219.0625 90.105469 " fill-opacity="1" fill-rule="nonzero"/><path fill="#282828" d="M 210.230469 83.4375 C 209.699219 83.4375 209.164062 83.277344 208.699219 82.941406 C 207.53125 82.09375 207.273438 80.464844 208.121094 79.300781 L 215.347656 69.375 C 216.199219 68.210938 217.828125 67.949219 219 68.796875 C 220.167969 69.640625 220.425781 71.273438 219.578125 72.4375 L 212.347656 82.363281 C 211.835938 83.066406 211.042969 83.4375 210.230469 83.4375 " fill-opacity="1" fill-rule="nonzero"/><path fill="#282828" d="M 200.210938 78.75 C 199.855469 78.75 199.496094 78.675781 199.148438 78.523438 C 197.832031 77.9375 197.238281 76.394531 197.824219 75.082031 L 202.828125 63.871094 C 203.414062 62.554688 204.957031 61.96875 206.277344 62.550781 C 207.59375 63.136719 208.1875 64.679688 207.597656 65.992188 L 202.597656 77.199219 C 202.164062 78.171875 201.210938 78.75 200.210938 78.75 " fill-opacity="1" fill-rule="nonzero"/><path fill="#282828" d="M 189.433594 76.238281 C 189.253906 76.238281 189.070312 76.222656 188.886719 76.179688 C 187.476562 75.882812 186.574219 74.5 186.875 73.089844 L 189.429688 61.089844 C 189.730469 59.679688 191.121094 58.773438 192.53125 59.082031 C 193.941406 59.382812 194.839844 60.761719 194.542969 62.171875 L 191.984375 74.171875 C 191.722656 75.398438 190.636719 76.238281 189.433594 76.238281 " fill-opacity="1" fill-rule="nonzero"/><path fill="#282828" d="M 151.242188 139.160156 C 151.230469 138.398438 151.21875 137.761719 151.207031 137.242188 C 151.195312 136.722656 151.1875 136.171875 151.1875 135.585938 C 151.1875 134.996094 151.195312 134.21875 151.207031 133.238281 C 151.269531 131.222656 151.757812 129.519531 152.675781 128.128906 C 153.597656 126.734375 154.949219 125.554688 156.734375 124.589844 L 159.175781 123.273438 C 160.035156 122.808594 160.582031 122.246094 160.824219 121.59375 C 161.0625 120.941406 161.199219 120.328125 161.238281 119.753906 C 161.285156 119.09375 161.3125 118.378906 161.320312 117.609375 C 161.324219 116.839844 161.308594 116.121094 161.269531 115.449219 C 161.1875 114.128906 160.296875 113.46875 158.609375 113.46875 C 157.753906 113.46875 157.132812 113.640625 156.753906 113.980469 C 156.375 114.324219 156.171875 114.769531 156.148438 115.320312 C 156.125 116.273438 156.105469 117.160156 156.09375 117.976562 C 156.082031 118.796875 156.105469 119.6875 156.167969 120.652344 L 151.28125 120.652344 C 151.242188 119.832031 151.214844 119.0625 151.199219 118.332031 C 151.179688 117.605469 151.183594 116.925781 151.207031 116.289062 C 151.304688 113.859375 151.933594 112.117188 153.089844 111.066406 C 154.246094 110.015625 156.085938 109.492188 158.609375 109.492188 C 161.28125 109.492188 163.1875 110.015625 164.332031 111.066406 C 165.476562 112.117188 166.097656 113.859375 166.195312 116.289062 C 166.242188 117.511719 166.242188 118.664062 166.195312 119.753906 C 166.121094 121.707031 165.617188 123.28125 164.691406 124.46875 C 163.757812 125.664062 162.546875 126.667969 161.050781 127.484375 L 158.277344 128.988281 C 157.496094 129.417969 156.953125 130.054688 156.652344 130.902344 C 156.351562 131.753906 156.203125 132.53125 156.203125 133.238281 L 156.203125 134.886719 L 165.84375 134.886719 L 165.84375 139.160156 L 151.242188 139.160156 " fill-opacity="1" fill-rule="nonzero"/><path fill="#282828" d="M 172.3125 127.210938 L 176.460938 127.210938 L 177.105469 120.210938 L 177.671875 114.109375 L 176.644531 114.109375 L 174.734375 120.210938 Z M 176.460938 139.160156 L 176.460938 131.441406 L 167.574219 131.441406 L 167.574219 127.429688 L 174.515625 109.839844 L 181.089844 109.839844 L 181.089844 127.210938 L 184.320312 127.210938 L 184.320312 131.441406 L 181.089844 131.441406 L 181.089844 139.160156 L 176.460938 139.160156 " fill-opacity="1" fill-rule="nonzero"/><path fill="#282828" d="M 203.699219 139.160156 L 212.128906 114.109375 L 201.625 114.109375 L 201.625 109.839844 L 217.050781 109.839844 L 217.050781 114.21875 L 208.824219 139.160156 L 203.699219 139.160156 " fill-opacity="1" fill-rule="nonzero"/><path fill="#282828" d="M 190.867188 142.445312 L 199.765625 107.667969 L 194.992188 107.667969 L 186.089844 142.445312 L 190.867188 142.445312 " fill-opacity="1" fill-rule="nonzero"/></svg>