<svg xmlns="http://www.w3.org/2000/svg" xmlns:xlink="http://www.w3.org/1999/xlink" width="1366" zoomAndPan="magnify" viewBox="0 0 1024.5 576" height="768" preserveAspectRatio="xMidYMid meet" version="1.0"><defs><g/></defs><g fill="#f6f6f6" fill-opacity="0.4"><g transform="translate(389.245147, 317.544449)"><g><path d="M 24.203125 0.199219 C 25.589844 0.199219 26.847656 -0.792969 27.507812 -2.644531 L 41.59375 -39.542969 C 42.71875 -42.652344 43.910156 -42.917969 46.355469 -43.113281 C 47.414062 -43.378906 48.007812 -43.84375 48.007812 -44.835938 C 48.007812 -45.890625 47.082031 -46.355469 45.695312 -46.355469 C 41.59375 -46.15625 39.214844 -46.289062 35.113281 -46.355469 C 33.195312 -46.355469 32.46875 -45.828125 32.46875 -44.769531 C 32.46875 -43.976562 32.929688 -43.378906 33.988281 -43.113281 C 38.023438 -42.785156 39.015625 -42.984375 38.023438 -40.140625 C 34.121094 -29.558594 30.152344 -18.914062 26.320312 -8.332031 C 25.855469 -7.140625 25.328125 -7.074219 24.863281 -8.332031 C 21.027344 -18.714844 17.257812 -29.097656 13.425781 -39.476562 C 12.167969 -42.851562 13.09375 -42.851562 16.929688 -43.179688 C 18.054688 -43.511719 18.515625 -44.105469 18.515625 -44.769531 C 18.515625 -45.828125 17.988281 -46.355469 15.011719 -46.355469 C 10.710938 -46.222656 8.730469 -46.289062 4.363281 -46.289062 C 1.519531 -46.289062 0.332031 -46.023438 0.332031 -44.636719 C 0.332031 -43.777344 0.859375 -43.3125 1.71875 -43.050781 C 4.363281 -42.652344 5.289062 -42.585938 6.679688 -38.882812 L 20.566406 -2.644531 C 21.359375 -0.660156 22.550781 0.199219 24.070312 0.199219 Z M 24.203125 0.199219 "/></g></g></g><g fill="#f6f6f6" fill-opacity="0.4"><g transform="translate(437.576791, 317.544449)"><g><path d="M 17.128906 0.726562 C 24.003906 0.726562 28.367188 -3.042969 30.417969 -7.40625 C 30.683594 -8.066406 30.417969 -8.992188 29.425781 -8.992188 C 29.03125 -8.992188 28.832031 -8.796875 28.5 -8.398438 C 26.582031 -5.820312 23.34375 -3.371094 18.714844 -3.371094 C 12.035156 -3.371094 8.597656 -9.191406 8.597656 -13.6875 C 8.597656 -14.480469 8.992188 -14.679688 9.589844 -14.746094 L 25.460938 -17.128906 C 28.300781 -17.523438 29.890625 -18.183594 29.890625 -21.226562 C 29.890625 -26.386719 24.929688 -31.875 17.257812 -31.875 C 9.257812 -31.875 2.117188 -25.589844 2.117188 -16.003906 C 2.117188 -6.945312 7.40625 0.726562 17.128906 0.726562 Z M 9.390625 -17.722656 C 8.464844 -17.523438 8.066406 -17.589844 8.066406 -19.308594 C 8.066406 -25.128906 12.367188 -28.964844 16.464844 -28.964844 C 21.492188 -28.964844 24.402344 -24.929688 24.402344 -21.558594 C 24.402344 -20.367188 23.804688 -19.96875 22.21875 -19.707031 Z M 9.390625 -17.722656 "/></g></g></g><g fill="#f6f6f6" fill-opacity="0.4"><g transform="translate(469.37914, 317.544449)"><g><path d="M 5.820312 0.132812 C 8.464844 0.0664062 11.109375 0.0664062 13.753906 0.132812 C 16.996094 0.132812 17.589844 -0.398438 17.589844 -1.324219 C 17.589844 -2.050781 17.0625 -2.445312 16.398438 -2.644531 C 12.628906 -3.304688 12.5625 -4.230469 12.5625 -7.738281 L 12.5625 -16.796875 C 12.5625 -24.535156 17.191406 -27.707031 20.894531 -27.707031 C 25.589844 -27.707031 27.574219 -24.730469 28.300781 -18.714844 L 29.425781 -8.925781 C 30.023438 -3.570312 29.824219 -3.242188 26.253906 -2.710938 C 25.394531 -2.511719 24.996094 -2.050781 24.996094 -1.324219 C 24.996094 -0.199219 25.855469 0.132812 28.699219 0.132812 C 32.535156 0.0664062 33.792969 0.0664062 37.890625 0.132812 C 40.207031 0.132812 40.734375 -0.464844 40.734375 -1.324219 C 40.734375 -2.117188 40.273438 -2.511719 39.410156 -2.777344 C 35.839844 -3.371094 35.839844 -3.769531 35.3125 -8.464844 L 34.054688 -19.773438 C 33.0625 -28.367188 29.164062 -31.941406 23.410156 -31.941406 C 14.746094 -31.941406 13.292969 -25.0625 12.828125 -25.0625 C 12.628906 -25.0625 12.5625 -25.261719 12.5625 -25.855469 L 12.5625 -29.824219 C 12.5625 -31.144531 12.035156 -31.609375 10.710938 -31.609375 C 9.257812 -31.609375 6.28125 -30.550781 3.242188 -29.625 C 2.183594 -29.292969 1.257812 -28.898438 1.324219 -27.90625 C 1.390625 -26.78125 2.976562 -27.113281 4.960938 -27.246094 C 6.613281 -27.3125 6.679688 -26.320312 6.679688 -24.730469 L 6.679688 -7.671875 C 6.679688 -4.296875 6.679688 -3.242188 2.910156 -2.578125 C 2.25 -2.445312 1.851562 -1.984375 1.851562 -1.324219 C 1.851562 -0.398438 2.644531 0.132812 5.820312 0.132812 Z M 5.820312 0.132812 "/></g></g></g><g fill="#f6f6f6" fill-opacity="0.4"><g transform="translate(510.305657, 317.544449)"><g><path d="M 14.414062 0.726562 C 22.683594 0.726562 24.996094 -6.414062 25.460938 -6.414062 C 25.589844 -6.414062 25.65625 -5.953125 25.722656 -4.828125 L 25.722656 -1.390625 C 25.722656 -0.0664062 26.253906 0.398438 27.507812 0.398438 C 29.03125 0.398438 32.003906 -0.792969 35.046875 -1.585938 C 36.039062 -1.917969 36.964844 -2.316406 36.964844 -3.371094 C 36.898438 -4.496094 35.3125 -4.101562 33.328125 -3.96875 C 31.742188 -3.902344 31.542969 -4.894531 31.542969 -6.480469 L 31.542969 -44.902344 C 31.542969 -46.222656 31.015625 -46.6875 29.757812 -46.6875 C 28.300781 -46.6875 25.261719 -45.5625 22.285156 -44.703125 C 21.226562 -44.371094 20.300781 -43.910156 20.367188 -42.917969 C 20.433594 -41.859375 22.019531 -42.253906 23.9375 -42.320312 C 25.589844 -42.320312 25.722656 -41.394531 25.722656 -39.808594 L 25.722656 -31.808594 C 25.722656 -28.898438 25.65625 -27.640625 25.128906 -27.640625 C 24.335938 -27.640625 22.617188 -31.875 16.070312 -31.875 C 7.539062 -31.875 2.117188 -24.664062 2.117188 -15.40625 C 2.117188 -5.753906 7.007812 0.726562 14.414062 0.726562 Z M 17.324219 -3.371094 C 11.703125 -3.371094 8.199219 -8.664062 8.199219 -17.523438 C 8.199219 -25.0625 12.433594 -29.03125 16.929688 -29.03125 C 22.683594 -29.03125 25.722656 -24.003906 25.722656 -15.804688 L 25.722656 -13.621094 C 25.722656 -7.671875 21.953125 -3.371094 17.324219 -3.371094 Z M 17.324219 -3.371094 "/></g></g></g><g fill="#f6f6f6" fill-opacity="0.4"><g transform="translate(547.992443, 317.544449)"><g><path d="M 8.464844 -37.03125 C 11.042969 -37.03125 12.695312 -38.355469 12.695312 -40.402344 C 12.695312 -42.386719 11.042969 -43.710938 8.464844 -43.710938 C 5.820312 -43.710938 4.101562 -42.386719 4.101562 -40.402344 C 4.101562 -38.355469 5.820312 -37.03125 8.464844 -37.03125 Z M 5.820312 0.265625 C 8.464844 0.199219 11.109375 0.199219 13.753906 0.265625 C 16.996094 0.265625 17.589844 -0.265625 17.589844 -1.191406 C 17.589844 -1.917969 17.0625 -2.316406 16.398438 -2.511719 C 12.628906 -3.175781 12.5625 -4.167969 12.5625 -7.605469 L 12.5625 -29.824219 C 12.5625 -31.144531 12.035156 -31.609375 10.710938 -31.609375 C 9.257812 -31.609375 6.28125 -30.550781 3.242188 -29.625 C 2.183594 -29.292969 1.257812 -28.898438 1.324219 -27.90625 C 1.390625 -26.78125 2.976562 -27.113281 4.960938 -27.246094 C 6.613281 -27.375 6.679688 -26.320312 6.679688 -24.730469 L 6.679688 -7.605469 C 6.679688 -4.167969 6.679688 -3.109375 2.910156 -2.511719 C 2.25 -2.316406 1.851562 -1.917969 1.851562 -1.191406 C 1.851562 -0.265625 2.644531 0.265625 5.820312 0.265625 Z M 5.820312 0.265625 "/></g></g></g><g fill="#f6f6f6" fill-opacity="0.4"><g transform="translate(566.637487, 317.544449)"><g><path d="M 5.820312 0.132812 C 8.464844 0.0664062 11.109375 0.0664062 13.753906 0.132812 C 16.996094 0.132812 17.589844 -0.398438 17.589844 -1.324219 C 17.589844 -2.050781 17.0625 -2.445312 16.398438 -2.644531 C 12.628906 -3.304688 12.5625 -4.230469 12.5625 -7.738281 L 12.5625 -16.796875 C 12.5625 -24.535156 17.191406 -27.707031 20.894531 -27.707031 C 25.589844 -27.707031 27.574219 -24.730469 28.300781 -18.714844 L 29.425781 -8.925781 C 30.023438 -3.570312 29.824219 -3.242188 26.253906 -2.710938 C 25.394531 -2.511719 24.996094 -2.050781 24.996094 -1.324219 C 24.996094 -0.199219 25.855469 0.132812 28.699219 0.132812 C 32.535156 0.0664062 33.792969 0.0664062 37.890625 0.132812 C 40.207031 0.132812 40.734375 -0.464844 40.734375 -1.324219 C 40.734375 -2.117188 40.273438 -2.511719 39.410156 -2.777344 C 35.839844 -3.371094 35.839844 -3.769531 35.3125 -8.464844 L 34.054688 -19.773438 C 33.0625 -28.367188 29.164062 -31.941406 23.410156 -31.941406 C 14.746094 -31.941406 13.292969 -25.0625 12.828125 -25.0625 C 12.628906 -25.0625 12.5625 -25.261719 12.5625 -25.855469 L 12.5625 -29.824219 C 12.5625 -31.144531 12.035156 -31.609375 10.710938 -31.609375 C 9.257812 -31.609375 6.28125 -30.550781 3.242188 -29.625 C 2.183594 -29.292969 1.257812 -28.898438 1.324219 -27.90625 C 1.390625 -26.78125 2.976562 -27.113281 4.960938 -27.246094 C 6.613281 -27.3125 6.679688 -26.320312 6.679688 -24.730469 L 6.679688 -7.671875 C 6.679688 -4.296875 6.679688 -3.242188 2.910156 -2.578125 C 2.25 -2.445312 1.851562 -1.984375 1.851562 -1.324219 C 1.851562 -0.398438 2.644531 0.132812 5.820312 0.132812 Z M 5.820312 0.132812 "/></g></g></g><g fill="#f6f6f6" fill-opacity="0.4"><g transform="translate(607.564015, 317.544449)"><g><path d="M 22.8125 -6.945312 C 27.90625 -8.859375 30.949219 -13.09375 30.949219 -18.78125 C 30.949219 -23.078125 28.964844 -26.648438 25.722656 -29.03125 C 28.832031 -29.757812 31.210938 -32.003906 31.34375 -35.445312 C 31.410156 -37.03125 30.152344 -38.222656 28.566406 -38.222656 C 27.113281 -38.222656 25.722656 -37.296875 25.789062 -35.445312 C 25.855469 -32.070312 24.46875 -30.617188 21.625 -31.078125 L 21.625 -31.015625 C 19.96875 -31.609375 18.117188 -31.875 16.136719 -31.875 C 7.273438 -31.875 1.324219 -26.054688 1.324219 -18.78125 C 1.324219 -10.84375 7.671875 -5.753906 15.605469 -5.753906 C 21.757812 -5.6875 25.855469 -2.183594 25.855469 2.511719 C 25.855469 6.746094 22.085938 9.457031 16.863281 9.457031 C 14.152344 9.457031 11.636719 8.859375 9.984375 7.339844 C 8.859375 6.347656 8.132812 4.894531 8.066406 3.042969 C 7.539062 0.992188 5.953125 0 4.296875 0 C 2.578125 0 1.257812 1.058594 1.257812 3.109375 C 1.257812 5.953125 2.910156 8.132812 5.289062 9.65625 C 8.132812 11.507812 12.167969 12.433594 16.136719 12.433594 C 25.328125 12.433594 31.476562 8.398438 31.476562 1.917969 C 31.476562 -2.710938 28.105469 -5.6875 22.8125 -6.945312 Z M 7.339844 -20.035156 C 7.339844 -25.195312 11.042969 -28.964844 15.671875 -28.964844 C 21.226562 -28.964844 24.929688 -23.9375 24.929688 -17.589844 C 24.929688 -12.167969 21.558594 -8.664062 16.597656 -8.664062 C 11.109375 -8.664062 7.339844 -13.292969 7.339844 -20.035156 Z M 7.339844 -20.035156 "/></g></g></g><g fill="#3657a9" fill-opacity="1"><g transform="translate(386.32248, 314.621783)"><g><path d="M 24.203125 0.199219 C 25.589844 0.199219 26.847656 -0.792969 27.507812 -2.644531 L 41.59375 -39.542969 C 42.71875 -42.652344 43.910156 -42.917969 46.355469 -43.113281 C 47.414062 -43.378906 48.007812 -43.84375 48.007812 -44.835938 C 48.007812 -45.890625 47.082031 -46.355469 45.695312 -46.355469 C 41.59375 -46.15625 39.214844 -46.289062 35.113281 -46.355469 C 33.195312 -46.355469 32.46875 -45.828125 32.46875 -44.769531 C 32.46875 -43.976562 32.929688 -43.378906 33.988281 -43.113281 C 38.023438 -42.785156 39.015625 -42.984375 38.023438 -40.140625 C 34.121094 -29.558594 30.152344 -18.914062 26.320312 -8.332031 C 25.855469 -7.140625 25.328125 -7.074219 24.863281 -8.332031 C 21.027344 -18.714844 17.257812 -29.097656 13.425781 -39.476562 C 12.167969 -42.851562 13.09375 -42.851562 16.929688 -43.179688 C 18.054688 -43.511719 18.515625 -44.105469 18.515625 -44.769531 C 18.515625 -45.828125 17.988281 -46.355469 15.011719 -46.355469 C 10.710938 -46.222656 8.730469 -46.289062 4.363281 -46.289062 C 1.519531 -46.289062 0.332031 -46.023438 0.332031 -44.636719 C 0.332031 -43.777344 0.859375 -43.3125 1.71875 -43.050781 C 4.363281 -42.652344 5.289062 -42.585938 6.679688 -38.882812 L 20.566406 -2.644531 C 21.359375 -0.660156 22.550781 0.199219 24.070312 0.199219 Z M 24.203125 0.199219 "/></g></g></g><g fill="#3657a9" fill-opacity="1"><g transform="translate(434.654125, 314.621783)"><g><path d="M 17.128906 0.726562 C 24.003906 0.726562 28.367188 -3.042969 30.417969 -7.40625 C 30.683594 -8.066406 30.417969 -8.992188 29.425781 -8.992188 C 29.03125 -8.992188 28.832031 -8.796875 28.5 -8.398438 C 26.582031 -5.820312 23.34375 -3.371094 18.714844 -3.371094 C 12.035156 -3.371094 8.597656 -9.191406 8.597656 -13.6875 C 8.597656 -14.480469 8.992188 -14.679688 9.589844 -14.746094 L 25.460938 -17.128906 C 28.300781 -17.523438 29.890625 -18.183594 29.890625 -21.226562 C 29.890625 -26.386719 24.929688 -31.875 17.257812 -31.875 C 9.257812 -31.875 2.117188 -25.589844 2.117188 -16.003906 C 2.117188 -6.945312 7.40625 0.726562 17.128906 0.726562 Z M 9.390625 -17.722656 C 8.464844 -17.523438 8.066406 -17.589844 8.066406 -19.308594 C 8.066406 -25.128906 12.367188 -28.964844 16.464844 -28.964844 C 21.492188 -28.964844 24.402344 -24.929688 24.402344 -21.558594 C 24.402344 -20.367188 23.804688 -19.96875 22.21875 -19.707031 Z M 9.390625 -17.722656 "/></g></g></g><g fill="#3657a9" fill-opacity="1"><g transform="translate(466.456474, 314.621783)"><g><path d="M 5.820312 0.132812 C 8.464844 0.0664062 11.109375 0.0664062 13.753906 0.132812 C 16.996094 0.132812 17.589844 -0.398438 17.589844 -1.324219 C 17.589844 -2.050781 17.0625 -2.445312 16.398438 -2.644531 C 12.628906 -3.304688 12.5625 -4.230469 12.5625 -7.738281 L 12.5625 -16.796875 C 12.5625 -24.535156 17.191406 -27.707031 20.894531 -27.707031 C 25.589844 -27.707031 27.574219 -24.730469 28.300781 -18.714844 L 29.425781 -8.925781 C 30.023438 -3.570312 29.824219 -3.242188 26.253906 -2.710938 C 25.394531 -2.511719 24.996094 -2.050781 24.996094 -1.324219 C 24.996094 -0.199219 25.855469 0.132812 28.699219 0.132812 C 32.535156 0.0664062 33.792969 0.0664062 37.890625 0.132812 C 40.207031 0.132812 40.734375 -0.464844 40.734375 -1.324219 C 40.734375 -2.117188 40.273438 -2.511719 39.410156 -2.777344 C 35.839844 -3.371094 35.839844 -3.769531 35.3125 -8.464844 L 34.054688 -19.773438 C 33.0625 -28.367188 29.164062 -31.941406 23.410156 -31.941406 C 14.746094 -31.941406 13.292969 -25.0625 12.828125 -25.0625 C 12.628906 -25.0625 12.5625 -25.261719 12.5625 -25.855469 L 12.5625 -29.824219 C 12.5625 -31.144531 12.035156 -31.609375 10.710938 -31.609375 C 9.257812 -31.609375 6.28125 -30.550781 3.242188 -29.625 C 2.183594 -29.292969 1.257812 -28.898438 1.324219 -27.90625 C 1.390625 -26.78125 2.976562 -27.113281 4.960938 -27.246094 C 6.613281 -27.3125 6.679688 -26.320312 6.679688 -24.730469 L 6.679688 -7.671875 C 6.679688 -4.296875 6.679688 -3.242188 2.910156 -2.578125 C 2.25 -2.445312 1.851562 -1.984375 1.851562 -1.324219 C 1.851562 -0.398438 2.644531 0.132812 5.820312 0.132812 Z M 5.820312 0.132812 "/></g></g></g><g fill="#3657a9" fill-opacity="1"><g transform="translate(507.38299, 314.621783)"><g><path d="M 14.414062 0.726562 C 22.683594 0.726562 24.996094 -6.414062 25.460938 -6.414062 C 25.589844 -6.414062 25.65625 -5.953125 25.722656 -4.828125 L 25.722656 -1.390625 C 25.722656 -0.0664062 26.253906 0.398438 27.507812 0.398438 C 29.03125 0.398438 32.003906 -0.792969 35.046875 -1.585938 C 36.039062 -1.917969 36.964844 -2.316406 36.964844 -3.371094 C 36.898438 -4.496094 35.3125 -4.101562 33.328125 -3.96875 C 31.742188 -3.902344 31.542969 -4.894531 31.542969 -6.480469 L 31.542969 -44.902344 C 31.542969 -46.222656 31.015625 -46.6875 29.757812 -46.6875 C 28.300781 -46.6875 25.261719 -45.5625 22.285156 -44.703125 C 21.226562 -44.371094 20.300781 -43.910156 20.367188 -42.917969 C 20.433594 -41.859375 22.019531 -42.253906 23.9375 -42.320312 C 25.589844 -42.320312 25.722656 -41.394531 25.722656 -39.808594 L 25.722656 -31.808594 C 25.722656 -28.898438 25.65625 -27.640625 25.128906 -27.640625 C 24.335938 -27.640625 22.617188 -31.875 16.070312 -31.875 C 7.539062 -31.875 2.117188 -24.664062 2.117188 -15.40625 C 2.117188 -5.753906 7.007812 0.726562 14.414062 0.726562 Z M 17.324219 -3.371094 C 11.703125 -3.371094 8.199219 -8.664062 8.199219 -17.523438 C 8.199219 -25.0625 12.433594 -29.03125 16.929688 -29.03125 C 22.683594 -29.03125 25.722656 -24.003906 25.722656 -15.804688 L 25.722656 -13.621094 C 25.722656 -7.671875 21.953125 -3.371094 17.324219 -3.371094 Z M 17.324219 -3.371094 "/></g></g></g><g fill="#3657a9" fill-opacity="1"><g transform="translate(545.069776, 314.621783)"><g><path d="M 8.464844 -37.03125 C 11.042969 -37.03125 12.695312 -38.355469 12.695312 -40.402344 C 12.695312 -42.386719 11.042969 -43.710938 8.464844 -43.710938 C 5.820312 -43.710938 4.101562 -42.386719 4.101562 -40.402344 C 4.101562 -38.355469 5.820312 -37.03125 8.464844 -37.03125 Z M 5.820312 0.265625 C 8.464844 0.199219 11.109375 0.199219 13.753906 0.265625 C 16.996094 0.265625 17.589844 -0.265625 17.589844 -1.191406 C 17.589844 -1.917969 17.0625 -2.316406 16.398438 -2.511719 C 12.628906 -3.175781 12.5625 -4.167969 12.5625 -7.605469 L 12.5625 -29.824219 C 12.5625 -31.144531 12.035156 -31.609375 10.710938 -31.609375 C 9.257812 -31.609375 6.28125 -30.550781 3.242188 -29.625 C 2.183594 -29.292969 1.257812 -28.898438 1.324219 -27.90625 C 1.390625 -26.78125 2.976562 -27.113281 4.960938 -27.246094 C 6.613281 -27.375 6.679688 -26.320312 6.679688 -24.730469 L 6.679688 -7.605469 C 6.679688 -4.167969 6.679688 -3.109375 2.910156 -2.511719 C 2.25 -2.316406 1.851562 -1.917969 1.851562 -1.191406 C 1.851562 -0.265625 2.644531 0.265625 5.820312 0.265625 Z M 5.820312 0.265625 "/></g></g></g><g fill="#3657a9" fill-opacity="1"><g transform="translate(563.714821, 314.621783)"><g><path d="M 5.820312 0.132812 C 8.464844 0.0664062 11.109375 0.0664062 13.753906 0.132812 C 16.996094 0.132812 17.589844 -0.398438 17.589844 -1.324219 C 17.589844 -2.050781 17.0625 -2.445312 16.398438 -2.644531 C 12.628906 -3.304688 12.5625 -4.230469 12.5625 -7.738281 L 12.5625 -16.796875 C 12.5625 -24.535156 17.191406 -27.707031 20.894531 -27.707031 C 25.589844 -27.707031 27.574219 -24.730469 28.300781 -18.714844 L 29.425781 -8.925781 C 30.023438 -3.570312 29.824219 -3.242188 26.253906 -2.710938 C 25.394531 -2.511719 24.996094 -2.050781 24.996094 -1.324219 C 24.996094 -0.199219 25.855469 0.132812 28.699219 0.132812 C 32.535156 0.0664062 33.792969 0.0664062 37.890625 0.132812 C 40.207031 0.132812 40.734375 -0.464844 40.734375 -1.324219 C 40.734375 -2.117188 40.273438 -2.511719 39.410156 -2.777344 C 35.839844 -3.371094 35.839844 -3.769531 35.3125 -8.464844 L 34.054688 -19.773438 C 33.0625 -28.367188 29.164062 -31.941406 23.410156 -31.941406 C 14.746094 -31.941406 13.292969 -25.0625 12.828125 -25.0625 C 12.628906 -25.0625 12.5625 -25.261719 12.5625 -25.855469 L 12.5625 -29.824219 C 12.5625 -31.144531 12.035156 -31.609375 10.710938 -31.609375 C 9.257812 -31.609375 6.28125 -30.550781 3.242188 -29.625 C 2.183594 -29.292969 1.257812 -28.898438 1.324219 -27.90625 C 1.390625 -26.78125 2.976562 -27.113281 4.960938 -27.246094 C 6.613281 -27.3125 6.679688 -26.320312 6.679688 -24.730469 L 6.679688 -7.671875 C 6.679688 -4.296875 6.679688 -3.242188 2.910156 -2.578125 C 2.25 -2.445312 1.851562 -1.984375 1.851562 -1.324219 C 1.851562 -0.398438 2.644531 0.132812 5.820312 0.132812 Z M 5.820312 0.132812 "/></g></g></g><g fill="#3657a9" fill-opacity="1"><g transform="translate(604.641348, 314.621783)"><g><path d="M 22.8125 -6.945312 C 27.90625 -8.859375 30.949219 -13.09375 30.949219 -18.78125 C 30.949219 -23.078125 28.964844 -26.648438 25.722656 -29.03125 C 28.832031 -29.757812 31.210938 -32.003906 31.34375 -35.445312 C 31.410156 -37.03125 30.152344 -38.222656 28.566406 -38.222656 C 27.113281 -38.222656 25.722656 -37.296875 25.789062 -35.445312 C 25.855469 -32.070312 24.46875 -30.617188 21.625 -31.078125 L 21.625 -31.015625 C 19.96875 -31.609375 18.117188 -31.875 16.136719 -31.875 C 7.273438 -31.875 1.324219 -26.054688 1.324219 -18.78125 C 1.324219 -10.84375 7.671875 -5.753906 15.605469 -5.753906 C 21.757812 -5.6875 25.855469 -2.183594 25.855469 2.511719 C 25.855469 6.746094 22.085938 9.457031 16.863281 9.457031 C 14.152344 9.457031 11.636719 8.859375 9.984375 7.339844 C 8.859375 6.347656 8.132812 4.894531 8.066406 3.042969 C 7.539062 0.992188 5.953125 0 4.296875 0 C 2.578125 0 1.257812 1.058594 1.257812 3.109375 C 1.257812 5.953125 2.910156 8.132812 5.289062 9.65625 C 8.132812 11.507812 12.167969 12.433594 16.136719 12.433594 C 25.328125 12.433594 31.476562 8.398438 31.476562 1.917969 C 31.476562 -2.710938 28.105469 -5.6875 22.8125 -6.945312 Z M 7.339844 -20.035156 C 7.339844 -25.195312 11.042969 -28.964844 15.671875 -28.964844 C 21.226562 -28.964844 24.929688 -23.9375 24.929688 -17.589844 C 24.929688 -12.167969 21.558594 -8.664062 16.597656 -8.664062 C 11.109375 -8.664062 7.339844 -13.292969 7.339844 -20.035156 Z M 7.339844 -20.035156 "/></g></g></g><g fill="#f6f6f6" fill-opacity="0.4"><g transform="translate(391.659209, 384.294442)"><g><path d="M 18.847656 0.726562 C 28.964844 0.726562 35.644531 -4.628906 35.644531 -12.761719 C 35.644531 -19.308594 31.675781 -24.003906 20.433594 -27.046875 C 12.695312 -29.164062 9.722656 -31.941406 9.722656 -36.4375 C 9.722656 -40.867188 13.753906 -43.644531 18.714844 -43.644531 C 25.0625 -43.644531 28.632812 -39.542969 28.832031 -33.726562 C 29.164062 -31.476562 30.617188 -30.949219 31.742188 -30.949219 C 33.328125 -30.949219 34.253906 -32.003906 34.253906 -33.792969 C 34.253906 -35.113281 34.054688 -36.304688 33.660156 -37.496094 C 33.261719 -38.484375 32.734375 -39.476562 32.136719 -40.335938 C 29.292969 -44.636719 23.804688 -47.015625 18.117188 -47.015625 C 8.925781 -47.015625 3.304688 -41.925781 3.304688 -35.644531 C 3.304688 -29.097656 6.546875 -25.0625 16.796875 -22.019531 C 24.535156 -19.773438 28.367188 -16.863281 28.367188 -11.574219 C 28.367188 -6.148438 24.269531 -2.710938 18.117188 -2.710938 C 11.375 -2.710938 7.539062 -6.8125 7.539062 -12.628906 C 7.273438 -14.878906 5.753906 -15.671875 4.429688 -15.671875 C 2.777344 -15.671875 1.785156 -14.480469 1.785156 -12.5625 C 1.785156 -11.441406 1.984375 -10.316406 2.316406 -9.390625 C 2.644531 -8.132812 3.304688 -7.007812 4.035156 -6.019531 C 6.945312 -1.71875 12.695312 0.726562 18.847656 0.726562 Z M 18.847656 0.726562 "/></g></g></g><g fill="#f6f6f6" fill-opacity="0.4"><g transform="translate(429.47822, 384.294442)"><g><path d="M 17.128906 0.726562 C 24.003906 0.726562 28.367188 -3.042969 30.417969 -7.40625 C 30.683594 -8.066406 30.417969 -8.992188 29.425781 -8.992188 C 29.03125 -8.992188 28.832031 -8.796875 28.5 -8.398438 C 26.582031 -5.820312 23.34375 -3.371094 18.714844 -3.371094 C 12.035156 -3.371094 8.597656 -9.191406 8.597656 -13.6875 C 8.597656 -14.480469 8.992188 -14.679688 9.589844 -14.746094 L 25.460938 -17.128906 C 28.300781 -17.523438 29.890625 -18.183594 29.890625 -21.226562 C 29.890625 -26.386719 24.929688 -31.875 17.257812 -31.875 C 9.257812 -31.875 2.117188 -25.589844 2.117188 -16.003906 C 2.117188 -6.945312 7.40625 0.726562 17.128906 0.726562 Z M 9.390625 -17.722656 C 8.464844 -17.523438 8.066406 -17.589844 8.066406 -19.308594 C 8.066406 -25.128906 12.367188 -28.964844 16.464844 -28.964844 C 21.492188 -28.964844 24.402344 -24.929688 24.402344 -21.558594 C 24.402344 -20.367188 23.804688 -19.96875 22.21875 -19.707031 Z M 9.390625 -17.722656 "/></g></g></g><g fill="#f6f6f6" fill-opacity="0.4"><g transform="translate(461.280569, 384.294442)"><g><path d="M 5.820312 0.265625 C 8.464844 0.199219 11.109375 0.199219 13.753906 0.265625 C 16.996094 0.265625 17.589844 -0.265625 17.589844 -1.191406 C 17.589844 -1.917969 17.0625 -2.316406 16.398438 -2.511719 C 12.628906 -3.175781 12.5625 -4.167969 12.5625 -7.605469 L 12.5625 -16.664062 C 12.5625 -23.609375 16.265625 -27.574219 19.90625 -27.574219 C 24.203125 -27.574219 23.804688 -24.070312 23.210938 -22.617188 C 22.8125 -20.5 24.46875 -19.640625 25.65625 -19.640625 C 28.238281 -19.640625 29.226562 -22.085938 29.226562 -24.402344 C 29.226562 -28.964844 26.714844 -31.941406 22.21875 -31.941406 C 14.8125 -31.941406 13.226562 -25.0625 12.828125 -25.0625 C 12.5625 -25.0625 12.5625 -25.589844 12.5625 -26.054688 L 12.5625 -29.824219 C 12.5625 -31.144531 12.035156 -31.609375 10.710938 -31.609375 C 9.257812 -31.609375 6.28125 -30.484375 3.242188 -29.625 C 2.183594 -29.292969 1.257812 -28.898438 1.324219 -27.839844 C 1.390625 -26.78125 2.976562 -27.113281 4.960938 -27.246094 C 6.613281 -27.3125 6.679688 -26.320312 6.679688 -24.664062 L 6.679688 -7.605469 C 6.679688 -4.167969 6.679688 -3.109375 2.910156 -2.511719 C 2.25 -2.316406 1.851562 -1.917969 1.851562 -1.191406 C 1.851562 -0.265625 2.644531 0.265625 5.820312 0.265625 Z M 5.820312 0.265625 "/></g></g></g><g fill="#f6f6f6" fill-opacity="0.4"><g transform="translate(491.562227, 384.294442)"><g><path d="M 16.796875 0.199219 C 18.25 0.199219 19.109375 -0.59375 20.433594 -2.316406 C 25.789062 -8.53125 30.816406 -16.265625 30.816406 -23.144531 C 30.816406 -25.261719 30.417969 -27.707031 29.425781 -29.359375 C 29.097656 -30.089844 28.566406 -30.617188 28.105469 -31.015625 C 27.3125 -31.609375 26.515625 -31.941406 25.722656 -31.941406 C 25.128906 -31.941406 24.535156 -31.742188 24.003906 -31.476562 C 23.34375 -31.078125 22.878906 -30.417969 22.878906 -29.492188 C 22.878906 -28.566406 23.210938 -27.507812 24.335938 -26.449219 C 26.449219 -25.195312 26.980469 -23.410156 26.78125 -20.433594 C 26.648438 -15.605469 23.476562 -10.648438 19.375 -6.148438 C 18.914062 -5.554688 18.449219 -5.421875 18.183594 -6.214844 C 16.003906 -12.234375 13.820312 -19.375 11.636719 -25.460938 C 10.910156 -27.375 11.574219 -28.171875 15.277344 -28.433594 C 16.265625 -28.699219 16.664062 -29.226562 16.664062 -29.890625 C 16.664062 -30.816406 16.203125 -31.34375 13.292969 -31.34375 C 9.257812 -31.277344 7.871094 -31.277344 3.636719 -31.34375 C 1.324219 -31.34375 0.199219 -31.144531 0.199219 -29.824219 C 0.199219 -29.03125 0.792969 -28.632812 1.652344 -28.367188 C 3.835938 -28.105469 4.296875 -27.640625 5.289062 -25.261719 C 8.464844 -17.324219 10.710938 -9.457031 13.621094 -1.585938 C 14.21875 -0.199219 14.878906 0.199219 16.464844 0.199219 Z M 16.796875 0.199219 "/></g></g></g><g fill="#f6f6f6" fill-opacity="0.4"><g transform="translate(524.488569, 384.294442)"><g><path d="M 8.464844 -37.03125 C 11.042969 -37.03125 12.695312 -38.355469 12.695312 -40.402344 C 12.695312 -42.386719 11.042969 -43.710938 8.464844 -43.710938 C 5.820312 -43.710938 4.101562 -42.386719 4.101562 -40.402344 C 4.101562 -38.355469 5.820312 -37.03125 8.464844 -37.03125 Z M 5.820312 0.265625 C 8.464844 0.199219 11.109375 0.199219 13.753906 0.265625 C 16.996094 0.265625 17.589844 -0.265625 17.589844 -1.191406 C 17.589844 -1.917969 17.0625 -2.316406 16.398438 -2.511719 C 12.628906 -3.175781 12.5625 -4.167969 12.5625 -7.605469 L 12.5625 -29.824219 C 12.5625 -31.144531 12.035156 -31.609375 10.710938 -31.609375 C 9.257812 -31.609375 6.28125 -30.550781 3.242188 -29.625 C 2.183594 -29.292969 1.257812 -28.898438 1.324219 -27.90625 C 1.390625 -26.78125 2.976562 -27.113281 4.960938 -27.246094 C 6.613281 -27.375 6.679688 -26.320312 6.679688 -24.730469 L 6.679688 -7.605469 C 6.679688 -4.167969 6.679688 -3.109375 2.910156 -2.511719 C 2.25 -2.316406 1.851562 -1.917969 1.851562 -1.191406 C 1.851562 -0.265625 2.644531 0.265625 5.820312 0.265625 Z M 5.820312 0.265625 "/></g></g></g><g fill="#f6f6f6" fill-opacity="0.4"><g transform="translate(543.133613, 384.294442)"><g><path d="M 17.257812 0.726562 C 24.136719 0.726562 28.367188 -2.84375 30.417969 -7.40625 C 30.683594 -8.132812 30.351562 -8.992188 29.425781 -8.992188 C 29.097656 -8.992188 28.832031 -8.859375 28.433594 -8.265625 C 26.386719 -5.554688 23.144531 -3.371094 18.847656 -3.371094 C 11.636719 -3.371094 8.066406 -9.785156 8.066406 -17.589844 C 8.066406 -24.664062 12.234375 -28.964844 16.796875 -28.964844 C 21.820312 -28.964844 23.671875 -25.921875 23.9375 -22.484375 C 24.402344 -20.765625 25.328125 -19.707031 27.113281 -19.707031 C 28.632812 -19.707031 29.425781 -20.894531 29.425781 -22.351562 C 29.425781 -27.972656 23.277344 -31.875 17.0625 -31.875 C 8.730469 -31.875 2.117188 -25.128906 2.117188 -15.605469 C 2.117188 -6.546875 7.671875 0.726562 17.257812 0.726562 Z M 17.257812 0.726562 "/></g></g></g><g fill="#f6f6f6" fill-opacity="0.4"><g transform="translate(575.72937, 384.294442)"><g><path d="M 17.128906 0.726562 C 24.003906 0.726562 28.367188 -3.042969 30.417969 -7.40625 C 30.683594 -8.066406 30.417969 -8.992188 29.425781 -8.992188 C 29.03125 -8.992188 28.832031 -8.796875 28.5 -8.398438 C 26.582031 -5.820312 23.34375 -3.371094 18.714844 -3.371094 C 12.035156 -3.371094 8.597656 -9.191406 8.597656 -13.6875 C 8.597656 -14.480469 8.992188 -14.679688 9.589844 -14.746094 L 25.460938 -17.128906 C 28.300781 -17.523438 29.890625 -18.183594 29.890625 -21.226562 C 29.890625 -26.386719 24.929688 -31.875 17.257812 -31.875 C 9.257812 -31.875 2.117188 -25.589844 2.117188 -16.003906 C 2.117188 -6.945312 7.40625 0.726562 17.128906 0.726562 Z M 9.390625 -17.722656 C 8.464844 -17.523438 8.066406 -17.589844 8.066406 -19.308594 C 8.066406 -25.128906 12.367188 -28.964844 16.464844 -28.964844 C 21.492188 -28.964844 24.402344 -24.929688 24.402344 -21.558594 C 24.402344 -20.367188 23.804688 -19.96875 22.21875 -19.707031 Z M 9.390625 -17.722656 "/></g></g></g><g fill="#f6f6f6" fill-opacity="0.4"><g transform="translate(607.531719, 384.294442)"><g><path d="M 15.738281 0.726562 C 23.542969 0.726562 28.832031 -2.578125 28.832031 -8.730469 C 28.832031 -13.359375 26.054688 -16.664062 17.789062 -18.449219 C 11.769531 -19.773438 10.183594 -21.691406 10.183594 -24.535156 C 10.183594 -27.113281 12.828125 -28.832031 16.203125 -28.832031 C 20.632812 -28.832031 22.878906 -25.921875 22.945312 -22.878906 C 23.410156 -21.292969 24.335938 -20.632812 25.65625 -20.632812 C 26.980469 -20.632812 27.773438 -21.757812 27.773438 -23.011719 C 27.773438 -24.863281 27.113281 -26.515625 25.988281 -27.839844 C 25.0625 -28.898438 23.804688 -29.757812 22.417969 -30.351562 C 20.367188 -31.34375 17.921875 -31.941406 15.40625 -31.941406 C 9.390625 -31.941406 4.496094 -28.699219 4.496094 -23.9375 C 4.496094 -19.242188 6.8125 -16.398438 14.480469 -14.480469 C 20.632812 -12.960938 22.878906 -11.109375 22.878906 -7.871094 C 22.878906 -4.5625 20.167969 -2.378906 15.277344 -2.378906 C 10.648438 -2.378906 8.464844 -5.289062 8.332031 -8.398438 C 7.871094 -10.25 6.8125 -10.910156 5.621094 -10.910156 C 4.167969 -10.910156 3.304688 -9.785156 3.304688 -8.332031 C 3.304688 -6.613281 3.902344 -5.027344 4.894531 -3.835938 C 5.753906 -2.710938 6.878906 -1.785156 8.199219 -1.125 C 10.382812 0.0664062 13.027344 0.726562 15.738281 0.726562 Z M 15.738281 0.726562 "/></g></g></g><g fill="#3657a9" fill-opacity="1"><g transform="translate(388.736543, 381.371775)"><g><path d="M 18.847656 0.726562 C 28.964844 0.726562 35.644531 -4.628906 35.644531 -12.761719 C 35.644531 -19.308594 31.675781 -24.003906 20.433594 -27.046875 C 12.695312 -29.164062 9.722656 -31.941406 9.722656 -36.4375 C 9.722656 -40.867188 13.753906 -43.644531 18.714844 -43.644531 C 25.0625 -43.644531 28.632812 -39.542969 28.832031 -33.726562 C 29.164062 -31.476562 30.617188 -30.949219 31.742188 -30.949219 C 33.328125 -30.949219 34.253906 -32.003906 34.253906 -33.792969 C 34.253906 -35.113281 34.054688 -36.304688 33.660156 -37.496094 C 33.261719 -38.484375 32.734375 -39.476562 32.136719 -40.335938 C 29.292969 -44.636719 23.804688 -47.015625 18.117188 -47.015625 C 8.925781 -47.015625 3.304688 -41.925781 3.304688 -35.644531 C 3.304688 -29.097656 6.546875 -25.0625 16.796875 -22.019531 C 24.535156 -19.773438 28.367188 -16.863281 28.367188 -11.574219 C 28.367188 -6.148438 24.269531 -2.710938 18.117188 -2.710938 C 11.375 -2.710938 7.539062 -6.8125 7.539062 -12.628906 C 7.273438 -14.878906 5.753906 -15.671875 4.429688 -15.671875 C 2.777344 -15.671875 1.785156 -14.480469 1.785156 -12.5625 C 1.785156 -11.441406 1.984375 -10.316406 2.316406 -9.390625 C 2.644531 -8.132812 3.304688 -7.007812 4.035156 -6.019531 C 6.945312 -1.71875 12.695312 0.726562 18.847656 0.726562 Z M 18.847656 0.726562 "/></g></g></g><g fill="#3657a9" fill-opacity="1"><g transform="translate(426.555554, 381.371775)"><g><path d="M 17.128906 0.726562 C 24.003906 0.726562 28.367188 -3.042969 30.417969 -7.40625 C 30.683594 -8.066406 30.417969 -8.992188 29.425781 -8.992188 C 29.03125 -8.992188 28.832031 -8.796875 28.5 -8.398438 C 26.582031 -5.820312 23.34375 -3.371094 18.714844 -3.371094 C 12.035156 -3.371094 8.597656 -9.191406 8.597656 -13.6875 C 8.597656 -14.480469 8.992188 -14.679688 9.589844 -14.746094 L 25.460938 -17.128906 C 28.300781 -17.523438 29.890625 -18.183594 29.890625 -21.226562 C 29.890625 -26.386719 24.929688 -31.875 17.257812 -31.875 C 9.257812 -31.875 2.117188 -25.589844 2.117188 -16.003906 C 2.117188 -6.945312 7.40625 0.726562 17.128906 0.726562 Z M 9.390625 -17.722656 C 8.464844 -17.523438 8.066406 -17.589844 8.066406 -19.308594 C 8.066406 -25.128906 12.367188 -28.964844 16.464844 -28.964844 C 21.492188 -28.964844 24.402344 -24.929688 24.402344 -21.558594 C 24.402344 -20.367188 23.804688 -19.96875 22.21875 -19.707031 Z M 9.390625 -17.722656 "/></g></g></g><g fill="#3657a9" fill-opacity="1"><g transform="translate(458.357903, 381.371775)"><g><path d="M 5.820312 0.265625 C 8.464844 0.199219 11.109375 0.199219 13.753906 0.265625 C 16.996094 0.265625 17.589844 -0.265625 17.589844 -1.191406 C 17.589844 -1.917969 17.0625 -2.316406 16.398438 -2.511719 C 12.628906 -3.175781 12.5625 -4.167969 12.5625 -7.605469 L 12.5625 -16.664062 C 12.5625 -23.609375 16.265625 -27.574219 19.90625 -27.574219 C 24.203125 -27.574219 23.804688 -24.070312 23.210938 -22.617188 C 22.8125 -20.5 24.46875 -19.640625 25.65625 -19.640625 C 28.238281 -19.640625 29.226562 -22.085938 29.226562 -24.402344 C 29.226562 -28.964844 26.714844 -31.941406 22.21875 -31.941406 C 14.8125 -31.941406 13.226562 -25.0625 12.828125 -25.0625 C 12.5625 -25.0625 12.5625 -25.589844 12.5625 -26.054688 L 12.5625 -29.824219 C 12.5625 -31.144531 12.035156 -31.609375 10.710938 -31.609375 C 9.257812 -31.609375 6.28125 -30.484375 3.242188 -29.625 C 2.183594 -29.292969 1.257812 -28.898438 1.324219 -27.839844 C 1.390625 -26.78125 2.976562 -27.113281 4.960938 -27.246094 C 6.613281 -27.3125 6.679688 -26.320312 6.679688 -24.664062 L 6.679688 -7.605469 C 6.679688 -4.167969 6.679688 -3.109375 2.910156 -2.511719 C 2.25 -2.316406 1.851562 -1.917969 1.851562 -1.191406 C 1.851562 -0.265625 2.644531 0.265625 5.820312 0.265625 Z M 5.820312 0.265625 "/></g></g></g><g fill="#3657a9" fill-opacity="1"><g transform="translate(488.639561, 381.371775)"><g><path d="M 16.796875 0.199219 C 18.25 0.199219 19.109375 -0.59375 20.433594 -2.316406 C 25.789062 -8.53125 30.816406 -16.265625 30.816406 -23.144531 C 30.816406 -25.261719 30.417969 -27.707031 29.425781 -29.359375 C 29.097656 -30.089844 28.566406 -30.617188 28.105469 -31.015625 C 27.3125 -31.609375 26.515625 -31.941406 25.722656 -31.941406 C 25.128906 -31.941406 24.535156 -31.742188 24.003906 -31.476562 C 23.34375 -31.078125 22.878906 -30.417969 22.878906 -29.492188 C 22.878906 -28.566406 23.210938 -27.507812 24.335938 -26.449219 C 26.449219 -25.195312 26.980469 -23.410156 26.78125 -20.433594 C 26.648438 -15.605469 23.476562 -10.648438 19.375 -6.148438 C 18.914062 -5.554688 18.449219 -5.421875 18.183594 -6.214844 C 16.003906 -12.234375 13.820312 -19.375 11.636719 -25.460938 C 10.910156 -27.375 11.574219 -28.171875 15.277344 -28.433594 C 16.265625 -28.699219 16.664062 -29.226562 16.664062 -29.890625 C 16.664062 -30.816406 16.203125 -31.34375 13.292969 -31.34375 C 9.257812 -31.277344 7.871094 -31.277344 3.636719 -31.34375 C 1.324219 -31.34375 0.199219 -31.144531 0.199219 -29.824219 C 0.199219 -29.03125 0.792969 -28.632812 1.652344 -28.367188 C 3.835938 -28.105469 4.296875 -27.640625 5.289062 -25.261719 C 8.464844 -17.324219 10.710938 -9.457031 13.621094 -1.585938 C 14.21875 -0.199219 14.878906 0.199219 16.464844 0.199219 Z M 16.796875 0.199219 "/></g></g></g><g fill="#3657a9" fill-opacity="1"><g transform="translate(521.565903, 381.371775)"><g><path d="M 8.464844 -37.03125 C 11.042969 -37.03125 12.695312 -38.355469 12.695312 -40.402344 C 12.695312 -42.386719 11.042969 -43.710938 8.464844 -43.710938 C 5.820312 -43.710938 4.101562 -42.386719 4.101562 -40.402344 C 4.101562 -38.355469 5.820312 -37.03125 8.464844 -37.03125 Z M 5.820312 0.265625 C 8.464844 0.199219 11.109375 0.199219 13.753906 0.265625 C 16.996094 0.265625 17.589844 -0.265625 17.589844 -1.191406 C 17.589844 -1.917969 17.0625 -2.316406 16.398438 -2.511719 C 12.628906 -3.175781 12.5625 -4.167969 12.5625 -7.605469 L 12.5625 -29.824219 C 12.5625 -31.144531 12.035156 -31.609375 10.710938 -31.609375 C 9.257812 -31.609375 6.28125 -30.550781 3.242188 -29.625 C 2.183594 -29.292969 1.257812 -28.898438 1.324219 -27.90625 C 1.390625 -26.78125 2.976562 -27.113281 4.960938 -27.246094 C 6.613281 -27.375 6.679688 -26.320312 6.679688 -24.730469 L 6.679688 -7.605469 C 6.679688 -4.167969 6.679688 -3.109375 2.910156 -2.511719 C 2.25 -2.316406 1.851562 -1.917969 1.851562 -1.191406 C 1.851562 -0.265625 2.644531 0.265625 5.820312 0.265625 Z M 5.820312 0.265625 "/></g></g></g><g fill="#3657a9" fill-opacity="1"><g transform="translate(540.210947, 381.371775)"><g><path d="M 17.257812 0.726562 C 24.136719 0.726562 28.367188 -2.84375 30.417969 -7.40625 C 30.683594 -8.132812 30.351562 -8.992188 29.425781 -8.992188 C 29.097656 -8.992188 28.832031 -8.859375 28.433594 -8.265625 C 26.386719 -5.554688 23.144531 -3.371094 18.847656 -3.371094 C 11.636719 -3.371094 8.066406 -9.785156 8.066406 -17.589844 C 8.066406 -24.664062 12.234375 -28.964844 16.796875 -28.964844 C 21.820312 -28.964844 23.671875 -25.921875 23.9375 -22.484375 C 24.402344 -20.765625 25.328125 -19.707031 27.113281 -19.707031 C 28.632812 -19.707031 29.425781 -20.894531 29.425781 -22.351562 C 29.425781 -27.972656 23.277344 -31.875 17.0625 -31.875 C 8.730469 -31.875 2.117188 -25.128906 2.117188 -15.605469 C 2.117188 -6.546875 7.671875 0.726562 17.257812 0.726562 Z M 17.257812 0.726562 "/></g></g></g><g fill="#3657a9" fill-opacity="1"><g transform="translate(572.806704, 381.371775)"><g><path d="M 17.128906 0.726562 C 24.003906 0.726562 28.367188 -3.042969 30.417969 -7.40625 C 30.683594 -8.066406 30.417969 -8.992188 29.425781 -8.992188 C 29.03125 -8.992188 28.832031 -8.796875 28.5 -8.398438 C 26.582031 -5.820312 23.34375 -3.371094 18.714844 -3.371094 C 12.035156 -3.371094 8.597656 -9.191406 8.597656 -13.6875 C 8.597656 -14.480469 8.992188 -14.679688 9.589844 -14.746094 L 25.460938 -17.128906 C 28.300781 -17.523438 29.890625 -18.183594 29.890625 -21.226562 C 29.890625 -26.386719 24.929688 -31.875 17.257812 -31.875 C 9.257812 -31.875 2.117188 -25.589844 2.117188 -16.003906 C 2.117188 -6.945312 7.40625 0.726562 17.128906 0.726562 Z M 9.390625 -17.722656 C 8.464844 -17.523438 8.066406 -17.589844 8.066406 -19.308594 C 8.066406 -25.128906 12.367188 -28.964844 16.464844 -28.964844 C 21.492188 -28.964844 24.402344 -24.929688 24.402344 -21.558594 C 24.402344 -20.367188 23.804688 -19.96875 22.21875 -19.707031 Z M 9.390625 -17.722656 "/></g></g></g><g fill="#3657a9" fill-opacity="1"><g transform="translate(604.609053, 381.371775)"><g><path d="M 15.738281 0.726562 C 23.542969 0.726562 28.832031 -2.578125 28.832031 -8.730469 C 28.832031 -13.359375 26.054688 -16.664062 17.789062 -18.449219 C 11.769531 -19.773438 10.183594 -21.691406 10.183594 -24.535156 C 10.183594 -27.113281 12.828125 -28.832031 16.203125 -28.832031 C 20.632812 -28.832031 22.878906 -25.921875 22.945312 -22.878906 C 23.410156 -21.292969 24.335938 -20.632812 25.65625 -20.632812 C 26.980469 -20.632812 27.773438 -21.757812 27.773438 -23.011719 C 27.773438 -24.863281 27.113281 -26.515625 25.988281 -27.839844 C 25.0625 -28.898438 23.804688 -29.757812 22.417969 -30.351562 C 20.367188 -31.34375 17.921875 -31.941406 15.40625 -31.941406 C 9.390625 -31.941406 4.496094 -28.699219 4.496094 -23.9375 C 4.496094 -19.242188 6.8125 -16.398438 14.480469 -14.480469 C 20.632812 -12.960938 22.878906 -11.109375 22.878906 -7.871094 C 22.878906 -4.5625 20.167969 -2.378906 15.277344 -2.378906 C 10.648438 -2.378906 8.464844 -5.289062 8.332031 -8.398438 C 7.871094 -10.25 6.8125 -10.910156 5.621094 -10.910156 C 4.167969 -10.910156 3.304688 -9.785156 3.304688 -8.332031 C 3.304688 -6.613281 3.902344 -5.027344 4.894531 -3.835938 C 5.753906 -2.710938 6.878906 -1.785156 8.199219 -1.125 C 10.382812 0.0664062 13.027344 0.726562 15.738281 0.726562 Z M 15.738281 0.726562 "/></g></g></g><g fill="#3657a9" fill-opacity="1"><g transform="translate(407.769238, 214.053179)"><g><path d="M 11.796875 0 L 8.609375 -4.484375 C 8.242188 -4.441406 7.867188 -4.421875 7.484375 -4.421875 L 3.75 -4.421875 L 3.75 0 L 2.265625 0 L 2.265625 -13.9375 L 7.484375 -13.9375 C 9.265625 -13.9375 10.660156 -13.507812 11.671875 -12.65625 C 12.679688 -11.8125 13.1875 -10.644531 13.1875 -9.15625 C 13.1875 -8.070312 12.910156 -7.15625 12.359375 -6.40625 C 11.804688 -5.65625 11.019531 -5.113281 10 -4.78125 L 13.40625 0 Z M 7.453125 -5.671875 C 8.828125 -5.671875 9.878906 -5.976562 10.609375 -6.59375 C 11.347656 -7.207031 11.71875 -8.0625 11.71875 -9.15625 C 11.71875 -10.289062 11.347656 -11.160156 10.609375 -11.765625 C 9.878906 -12.367188 8.828125 -12.671875 7.453125 -12.671875 L 3.75 -12.671875 L 3.75 -5.671875 Z M 7.453125 -5.671875 "/></g></g></g><g fill="#3657a9" fill-opacity="1"><g transform="translate(423.966712, 214.053179)"><g><path d="M 8.359375 0.125 C 6.984375 0.125 5.734375 -0.179688 4.609375 -0.796875 C 3.484375 -1.421875 2.601562 -2.269531 1.96875 -3.34375 C 1.34375 -4.414062 1.03125 -5.625 1.03125 -6.96875 C 1.03125 -8.3125 1.34375 -9.519531 1.96875 -10.59375 C 2.601562 -11.675781 3.484375 -12.523438 4.609375 -13.140625 C 5.734375 -13.753906 6.984375 -14.0625 8.359375 -14.0625 C 9.742188 -14.0625 10.988281 -13.753906 12.09375 -13.140625 C 13.207031 -12.535156 14.082031 -11.691406 14.71875 -10.609375 C 15.351562 -9.523438 15.671875 -8.3125 15.671875 -6.96875 C 15.671875 -5.625 15.351562 -4.410156 14.71875 -3.328125 C 14.082031 -2.253906 13.207031 -1.410156 12.09375 -0.796875 C 10.988281 -0.179688 9.742188 0.125 8.359375 0.125 Z M 8.359375 -1.1875 C 9.460938 -1.1875 10.457031 -1.4375 11.34375 -1.9375 C 12.238281 -2.4375 12.9375 -3.128906 13.4375 -4.015625 C 13.945312 -4.898438 14.203125 -5.882812 14.203125 -6.96875 C 14.203125 -8.0625 13.945312 -9.046875 13.4375 -9.921875 C 12.9375 -10.804688 12.238281 -11.5 11.34375 -12 C 10.457031 -12.5 9.460938 -12.75 8.359375 -12.75 C 7.265625 -12.75 6.269531 -12.5 5.375 -12 C 4.476562 -11.5 3.769531 -10.804688 3.25 -9.921875 C 2.738281 -9.046875 2.484375 -8.0625 2.484375 -6.96875 C 2.484375 -5.882812 2.738281 -4.898438 3.25 -4.015625 C 3.769531 -3.128906 4.476562 -2.4375 5.375 -1.9375 C 6.269531 -1.4375 7.265625 -1.1875 8.359375 -1.1875 Z M 8.359375 -1.1875 "/></g></g></g><g fill="#3657a9" fill-opacity="1"><g transform="translate(442.475125, 214.053179)"><g><path d="M 7.046875 -4.828125 L 7.046875 0 L 5.59375 0 L 5.59375 -4.828125 L 0.015625 -13.9375 L 1.59375 -13.9375 L 6.375 -6.109375 L 11.15625 -13.9375 L 12.625 -13.9375 Z M 7.046875 -4.828125 "/></g></g></g><g fill="#3657a9" fill-opacity="1"><g transform="translate(456.919478, 214.053179)"><g><path d="M 11.015625 -3.71875 L 3.25 -3.71875 L 1.578125 0 L 0.046875 0 L 6.421875 -13.9375 L 7.875 -13.9375 L 14.25 0 L 12.6875 0 Z M 10.484375 -4.921875 L 7.125 -12.40625 L 3.78125 -4.921875 Z M 10.484375 -4.921875 "/></g></g></g><g fill="#3657a9" fill-opacity="1"><g transform="translate(472.997418, 214.053179)"><g><path d="M 2.265625 -13.9375 L 3.75 -13.9375 L 3.75 -1.28125 L 11.546875 -1.28125 L 11.546875 0 L 2.265625 0 Z M 2.265625 -13.9375 "/></g></g></g><g fill="#3657a9" fill-opacity="1"><g transform="translate(486.525363, 214.053179)"><g/></g></g><g fill="#3657a9" fill-opacity="1"><g transform="translate(493.538874, 214.053179)"><g><path d="M 13.859375 -13.9375 L 7.6875 0 L 6.234375 0 L 0.0625 -13.9375 L 1.65625 -13.9375 L 7 -1.828125 L 12.375 -13.9375 Z M 13.859375 -13.9375 "/></g></g></g><g fill="#3657a9" fill-opacity="1"><g transform="translate(509.2383, 214.053179)"><g><path d="M 12.125 -1.28125 L 12.125 0 L 2.265625 0 L 2.265625 -13.9375 L 11.828125 -13.9375 L 11.828125 -12.671875 L 3.75 -12.671875 L 3.75 -7.703125 L 10.953125 -7.703125 L 10.953125 -6.453125 L 3.75 -6.453125 L 3.75 -1.28125 Z M 12.125 -1.28125 "/></g></g></g><g fill="#3657a9" fill-opacity="1"><g transform="translate(524.359995, 214.053179)"><g><path d="M 13.921875 -13.9375 L 13.921875 0 L 12.703125 0 L 3.75 -11.3125 L 3.75 0 L 2.265625 0 L 2.265625 -13.9375 L 3.484375 -13.9375 L 12.46875 -2.625 L 12.46875 -13.9375 Z M 13.921875 -13.9375 "/></g></g></g><g fill="#3657a9" fill-opacity="1"><g transform="translate(542.350437, 214.053179)"><g><path d="M 4.984375 -12.671875 L 0.078125 -12.671875 L 0.078125 -13.9375 L 11.359375 -13.9375 L 11.359375 -12.671875 L 6.453125 -12.671875 L 6.453125 0 L 4.984375 0 Z M 4.984375 -12.671875 "/></g></g></g><g fill="#3657a9" fill-opacity="1"><g transform="translate(555.579554, 214.053179)"><g><path d="M 7.890625 0.125 C 6.078125 0.125 4.664062 -0.390625 3.65625 -1.421875 C 2.65625 -2.460938 2.15625 -3.972656 2.15625 -5.953125 L 2.15625 -13.9375 L 3.625 -13.9375 L 3.625 -6.015625 C 3.625 -4.390625 3.988281 -3.175781 4.71875 -2.375 C 5.445312 -1.582031 6.503906 -1.1875 7.890625 -1.1875 C 9.285156 -1.1875 10.347656 -1.582031 11.078125 -2.375 C 11.804688 -3.175781 12.171875 -4.390625 12.171875 -6.015625 L 12.171875 -13.9375 L 13.609375 -13.9375 L 13.609375 -5.953125 C 13.609375 -3.972656 13.101562 -2.460938 12.09375 -1.421875 C 11.09375 -0.390625 9.691406 0.125 7.890625 0.125 Z M 7.890625 0.125 "/></g></g></g><g fill="#3657a9" fill-opacity="1"><g transform="translate(573.151634, 214.053179)"><g><path d="M 11.796875 0 L 8.609375 -4.484375 C 8.242188 -4.441406 7.867188 -4.421875 7.484375 -4.421875 L 3.75 -4.421875 L 3.75 0 L 2.265625 0 L 2.265625 -13.9375 L 7.484375 -13.9375 C 9.265625 -13.9375 10.660156 -13.507812 11.671875 -12.65625 C 12.679688 -11.8125 13.1875 -10.644531 13.1875 -9.15625 C 13.1875 -8.070312 12.910156 -7.15625 12.359375 -6.40625 C 11.804688 -5.65625 11.019531 -5.113281 10 -4.78125 L 13.40625 0 Z M 7.453125 -5.671875 C 8.828125 -5.671875 9.878906 -5.976562 10.609375 -6.59375 C 11.347656 -7.207031 11.71875 -8.0625 11.71875 -9.15625 C 11.71875 -10.289062 11.347656 -11.160156 10.609375 -11.765625 C 9.878906 -12.367188 8.828125 -12.671875 7.453125 -12.671875 L 3.75 -12.671875 L 3.75 -5.671875 Z M 7.453125 -5.671875 "/></g></g></g><g fill="#3657a9" fill-opacity="1"><g transform="translate(589.349108, 214.053179)"><g><path d="M 12.125 -1.28125 L 12.125 0 L 2.265625 0 L 2.265625 -13.9375 L 11.828125 -13.9375 L 11.828125 -12.671875 L 3.75 -12.671875 L 3.75 -7.703125 L 10.953125 -7.703125 L 10.953125 -6.453125 L 3.75 -6.453125 L 3.75 -1.28125 Z M 12.125 -1.28125 "/></g></g></g><g fill="#3657a9" fill-opacity="1"><g transform="translate(604.470814, 214.053179)"><g><path d="M 6.109375 0.125 C 5.078125 0.125 4.085938 -0.0390625 3.140625 -0.375 C 2.191406 -0.707031 1.457031 -1.144531 0.9375 -1.6875 L 1.515625 -2.828125 C 2.015625 -2.328125 2.679688 -1.921875 3.515625 -1.609375 C 4.359375 -1.296875 5.222656 -1.140625 6.109375 -1.140625 C 7.359375 -1.140625 8.296875 -1.367188 8.921875 -1.828125 C 9.546875 -2.285156 9.859375 -2.878906 9.859375 -3.609375 C 9.859375 -4.160156 9.6875 -4.601562 9.34375 -4.9375 C 9.007812 -5.269531 8.597656 -5.523438 8.109375 -5.703125 C 7.617188 -5.878906 6.9375 -6.078125 6.0625 -6.296875 C 5.007812 -6.554688 4.171875 -6.8125 3.546875 -7.0625 C 2.921875 -7.3125 2.382812 -7.6875 1.9375 -8.1875 C 1.5 -8.6875 1.28125 -9.367188 1.28125 -10.234375 C 1.28125 -10.941406 1.460938 -11.582031 1.828125 -12.15625 C 2.203125 -12.738281 2.773438 -13.203125 3.546875 -13.546875 C 4.316406 -13.890625 5.273438 -14.0625 6.421875 -14.0625 C 7.210938 -14.0625 7.988281 -13.953125 8.75 -13.734375 C 9.519531 -13.515625 10.179688 -13.210938 10.734375 -12.828125 L 10.234375 -11.65625 C 9.648438 -12.039062 9.023438 -12.328125 8.359375 -12.515625 C 7.703125 -12.710938 7.054688 -12.8125 6.421875 -12.8125 C 5.191406 -12.8125 4.269531 -12.570312 3.65625 -12.09375 C 3.039062 -11.625 2.734375 -11.019531 2.734375 -10.28125 C 2.734375 -9.71875 2.898438 -9.265625 3.234375 -8.921875 C 3.578125 -8.585938 4.003906 -8.332031 4.515625 -8.15625 C 5.023438 -7.976562 5.710938 -7.78125 6.578125 -7.5625 C 7.597656 -7.3125 8.421875 -7.0625 9.046875 -6.8125 C 9.679688 -6.570312 10.21875 -6.203125 10.65625 -5.703125 C 11.09375 -5.203125 11.3125 -4.53125 11.3125 -3.6875 C 11.3125 -2.976562 11.125 -2.332031 10.75 -1.75 C 10.375 -1.175781 9.789062 -0.71875 9 -0.375 C 8.21875 -0.0390625 7.253906 0.125 6.109375 0.125 Z M 6.109375 0.125 "/></g></g></g></svg>