<svg xmlns="http://www.w3.org/2000/svg" xmlns:xlink="http://www.w3.org/1999/xlink" width="500" zoomAndPan="magnify" viewBox="0 0 375 374.999991" height="500" preserveAspectRatio="xMidYMid meet" version="1.0"><defs><clipPath id="d381b24c47"><path d="M 112.5 60.914062 L 262.5 60.914062 L 262.5 210.914062 L 112.5 210.914062 Z M 112.5 60.914062 " clip-rule="nonzero"/></clipPath></defs><g clip-path="url(#d381b24c47)"><path fill="#090079" d="M 187.503906 60.914062 C 228.929688 60.914062 262.511719 94.496094 262.511719 135.917969 C 262.511719 177.34375 228.929688 210.925781 187.503906 210.925781 C 146.082031 210.925781 112.5 177.34375 112.5 135.917969 C 112.5 94.496094 146.082031 60.914062 187.503906 60.914062 " fill-opacity="1" fill-rule="nonzero"/></g><path fill="#ea202a" d="M 118.46875 135.917969 C 118.46875 97.789062 149.375 66.882812 187.503906 66.882812 C 225.632812 66.882812 256.542969 97.789062 256.542969 135.917969 C 256.542969 174.046875 225.632812 204.957031 187.503906 204.957031 C 149.375 204.957031 118.46875 174.046875 118.46875 135.917969 " fill-opacity="1" fill-rule="nonzero"/><path fill="#ffffff" d="M 255.898438 145.40625 C 245.335938 142.328125 233.019531 140.234375 223.6875 143.765625 C 207.4375 149.910156 177.078125 163.34375 177.078125 163.34375 L 181.609375 146.394531 C 181.609375 146.394531 220.046875 127.777344 232.707031 128.234375 C 239.25 128.46875 248.71875 129.617188 256.347656 130.667969 C 256.476562 132.402344 256.542969 134.152344 256.542969 135.917969 C 256.542969 139.140625 256.324219 142.304688 255.898438 145.40625 Z M 187.589844 104.84375 C 197.726562 95.335938 207.386719 89.582031 219.566406 89.097656 C 226.753906 88.816406 234.109375 91.277344 241.777344 93.242188 C 245.332031 97.761719 248.339844 102.734375 250.691406 108.058594 C 241.6875 106.882812 228.292969 104.476562 221.953125 104.84375 C 213.609375 105.328125 194.753906 123.484375 194.753906 123.484375 Z M 176.59375 80.03125 C 182.929688 74.578125 191.09375 70.640625 201.074219 68.214844 C 207.570312 69.511719 213.738281 71.714844 219.4375 74.695312 C 204.640625 76.285156 193.429688 82.425781 185.203125 89.824219 Z M 242.167969 178.09375 C 234.949219 176.394531 227.15625 175.183594 223.972656 176.832031 C 212.402344 182.828125 189.371094 196.0625 175.738281 203.957031 C 172.535156 203.410156 169.40625 202.636719 166.367188 201.660156 L 168.363281 189.828125 C 168.363281 189.828125 213.71875 162.863281 222.210938 161.179688 C 228.148438 160.003906 242.988281 161.292969 251.375 162.179688 C 249.015625 167.910156 245.90625 173.257812 242.167969 178.09375 " fill-opacity="1" fill-rule="nonzero"/><path fill="#090079" d="M 165.972656 70.308594 C 183.796875 78.496094 196.234375 97.035156 196.234375 118.59375 C 196.234375 147.734375 173.507812 171.355469 145.476562 171.355469 C 138.582031 171.355469 132.007812 169.929688 126.015625 167.339844 C 121.191406 157.917969 118.46875 147.234375 118.46875 135.917969 C 118.46875 105.308594 138.386719 79.355469 165.972656 70.308594 " fill-opacity="1" fill-rule="nonzero"/><path fill="#ffffff" d="M 155.898438 90.128906 L 151.46875 90.015625 L 149.085938 93.75 L 147.824219 89.503906 L 143.539062 88.390625 L 147.1875 85.878906 L 146.917969 81.457031 L 150.433594 84.152344 L 154.558594 82.53125 L 153.082031 86.710938 L 155.898438 90.128906 " fill-opacity="1" fill-rule="evenodd"/><path fill="#ffffff" d="M 170.433594 82.753906 L 166.003906 82.640625 L 163.621094 86.375 L 162.363281 82.128906 L 158.074219 81.019531 L 161.722656 78.507812 L 161.453125 74.085938 L 164.972656 76.777344 L 169.09375 75.160156 L 167.617188 79.335938 L 170.433594 82.753906 " fill-opacity="1" fill-rule="evenodd"/><path fill="#ffffff" d="M 168.257812 99.207031 L 163.832031 99.09375 L 161.449219 102.828125 L 160.1875 98.582031 L 155.898438 97.472656 L 159.546875 94.960938 L 159.28125 90.539062 L 162.796875 93.230469 L 166.917969 91.609375 L 165.445312 95.789062 L 168.257812 99.207031 " fill-opacity="1" fill-rule="evenodd"/><path fill="#ffffff" d="M 153.253906 110.503906 L 148.824219 110.390625 L 146.441406 114.125 L 145.179688 109.878906 L 140.894531 108.769531 L 144.542969 106.257812 L 144.273438 101.835938 L 147.789062 104.527344 L 151.914062 102.910156 L 150.4375 107.085938 L 153.253906 110.503906 " fill-opacity="1" fill-rule="evenodd"/><path fill="#ffffff" d="M 138.929688 122.441406 L 134.5 122.328125 L 132.117188 126.0625 L 130.855469 121.816406 L 126.570312 120.703125 L 130.21875 118.191406 L 129.949219 113.769531 L 133.46875 116.464844 L 137.589844 114.84375 L 136.113281 119.019531 L 138.929688 122.441406 " fill-opacity="1" fill-rule="evenodd"/><path fill="#ffffff" d="M 183.859375 93.582031 L 179.433594 93.46875 L 177.050781 97.203125 L 175.789062 92.957031 L 171.5 91.84375 L 175.148438 89.332031 L 174.882812 84.910156 L 178.398438 87.605469 L 182.519531 85.984375 L 181.046875 90.160156 L 183.859375 93.582031 " fill-opacity="1" fill-rule="evenodd"/><path fill="#090079" d="M 184.417969 151.039062 C 171.511719 166.730469 178.683594 192.113281 177.699219 204.265625 C 144.214844 199.503906 118.46875 170.71875 118.46875 135.917969 C 118.46875 132.273438 118.75 128.691406 119.296875 125.199219 C 126.734375 126.695312 139.421875 125.488281 143.367188 116.308594 C 141.71875 94.914062 206.777344 81.699219 208.113281 99.59375 C 213.316406 97.886719 216.492188 99.050781 218.5 100.535156 C 236.9375 98.097656 243.460938 106.410156 236.363281 126.046875 C 235.101562 120.234375 232.054688 118.015625 229.929688 117.582031 C 224.644531 116.277344 215.929688 128.09375 205.585938 133.332031 C 207.890625 136.519531 208.996094 139.15625 208.902344 141.242188 C 212.527344 144.640625 216.59375 142.820312 219.273438 146.210938 C 212.433594 152.90625 205.710938 156.460938 193.863281 150.378906 C 191.511719 150.835938 188.542969 151.484375 184.417969 151.039062 " fill-opacity="1" fill-rule="nonzero"/><path fill="#ffffff" d="M 182.046875 147.164062 C 164.382812 168.214844 175.351562 177.125 171.972656 203.203125 C 141.324219 196.15625 118.46875 168.707031 118.46875 135.917969 C 118.46875 134.730469 118.5 133.546875 118.558594 132.371094 C 128.398438 130.34375 143.710938 127.585938 147.339844 117.785156 C 147.679688 93.632812 207.554688 88.71875 204.609375 101.121094 C 200.464844 103.597656 198.835938 106.621094 199.722656 110.191406 L 194.113281 113.917969 L 195 115.507812 C 185.796875 115.371094 179.953125 120.316406 177.46875 130.347656 C 168.515625 136.53125 169.554688 139.542969 180.589844 139.375 C 185.90625 141.609375 190.019531 144.46875 192.933594 147.964844 C 189.535156 148.292969 185.90625 148.027344 182.046875 147.164062 " fill-opacity="1" fill-rule="nonzero"/><path fill="#e7cf24" d="M 236.242188 118.988281 C 235.617188 109.761719 213.753906 119.996094 201.804688 119.859375 C 189.890625 119.519531 183.296875 124.058594 182.03125 133.480469 C 191.664062 136.019531 197.835938 139.078125 200.542969 142.660156 C 205.898438 145.25 211.234375 146.398438 216.542969 146.113281 C 210.445312 150.757812 203.445312 151.140625 195.546875 147.257812 C 195.546875 147.257812 188.085938 137.570312 180.34375 137.769531 C 173.308594 137.835938 172.863281 136.148438 179.007812 132.714844 C 181.34375 121.125 189.1875 115.960938 202.535156 117.230469 L 196.667969 114.902344 C 199.148438 113.65625 200.464844 112.402344 200.617188 111.148438 C 201.320312 105.441406 203.003906 103.039062 205.675781 103.933594 C 207.324219 102.183594 209.726562 101.6875 212.882812 102.449219 C 211.277344 103.644531 210.480469 104.898438 210.492188 106.210938 C 211.140625 108.699219 209.167969 111.707031 204.582031 115.234375 C 210.515625 114.265625 213.40625 111.242188 213.257812 106.167969 L 215.757812 103.085938 C 232.230469 101.792969 239.054688 107.097656 236.242188 118.988281 " fill-opacity="1" fill-rule="evenodd"/><path fill="#e7cf24" d="M 186.574219 132.425781 C 189.851562 131.273438 193.785156 131.125 198.378906 131.984375 L 194.445312 129.769531 C 197.871094 129.101562 201.5625 130.863281 205.515625 135.058594 L 196.710938 136.722656 C 196.097656 134.867188 192.71875 133.433594 186.574219 132.425781 " fill-opacity="1" fill-rule="evenodd"/><path fill="#090079" d="M 193.476562 106.65625 C 194.269531 103.449219 183.121094 98.3125 178.339844 105.0625 C 177.652344 105.679688 176.136719 105.558594 173.796875 104.695312 C 175.042969 107.335938 176.695312 108.332031 178.753906 107.679688 C 180.269531 113.097656 187.671875 113.917969 192.148438 108.800781 C 196.136719 108.746094 196.578125 108.03125 193.476562 106.65625 " fill-opacity="1" fill-rule="evenodd"/><path fill="#ffffff" d="M 191.484375 106.890625 C 186.914062 111.503906 183.132812 111.828125 180.132812 107.863281 C 184.183594 102.253906 187.964844 101.933594 191.484375 106.890625 " fill-opacity="1" fill-rule="evenodd"/><path fill="#090079" d="M 190.277344 104.183594 C 190.460938 104.78125 190.519531 105.429688 190.425781 106.085938 C 190.078125 108.574219 187.695312 110.296875 185.113281 109.933594 C 183.003906 109.636719 181.410156 108.042969 181.082031 106.117188 C 184.1875 102.792969 187.253906 102.148438 190.277344 104.183594 " fill-opacity="1" fill-rule="nonzero"/><path fill="#ffffff" d="M 188.902344 103.875 C 189.203125 104.484375 189.332031 104.757812 189.230469 105.480469 C 188.960938 107.398438 187.191406 108.730469 185.273438 108.460938 C 183.519531 108.214844 182.484375 107.007812 182.496094 105.28125 C 184.730469 103.375 186.710938 102.992188 188.902344 103.875 " fill-opacity="1" fill-rule="nonzero"/><path fill="#090079" d="M 184.253906 102.617188 C 187.980469 100.59375 191.457031 101.082031 196.613281 104.464844 C 197.722656 102.667969 201.15625 100.609375 203.175781 102.496094 C 200.277344 103.484375 197.515625 105.433594 196.289062 107.082031 C 192.355469 104.347656 189.101562 101.785156 184.253906 102.617188 " fill-opacity="1" fill-rule="evenodd"/><path fill="#090079" d="M 208.976562 106.703125 C 207.011719 108.660156 203.851562 105.761719 202.632812 110.238281 C 204.269531 108.765625 205.375 108.207031 206 109.039062 C 206.105469 109.457031 205.527344 109.867188 204.269531 110.273438 C 206.914062 110.90625 208.648438 109.421875 208.976562 106.703125 " fill-opacity="1" fill-rule="evenodd"/><path fill="#090079" d="M 199.097656 103.9375 C 200.070312 102.496094 199.613281 100.144531 198.035156 97.488281 C 200.6875 98.632812 201.539062 100.859375 200.28125 103.5625 L 199.097656 103.9375 " fill-opacity="1" fill-rule="evenodd"/><path fill="#090079" d="M 180.425781 132.140625 C 176.304688 136.269531 176.847656 137.550781 182.046875 135.984375 C 179.398438 135.976562 178.859375 134.695312 180.425781 132.140625 " fill-opacity="1" fill-rule="evenodd"/><path fill="#090079" d="M 192.117188 140.585938 C 195.023438 140.679688 197.558594 141.929688 199.722656 144.332031 C 202.191406 146.121094 205.75 147.097656 210.402344 147.261719 C 205.820312 148.648438 201.382812 148.285156 197.097656 146.171875 C 196.667969 144.4375 195.011719 142.574219 192.117188 140.585938 " fill-opacity="1" fill-rule="evenodd"/><path fill="#090079" d="M 233.894531 113.007812 C 232.230469 106.691406 222.582031 104.660156 215.035156 106.210938 L 217.054688 104.015625 C 226.011719 103.671875 233.109375 105.59375 233.894531 113.007812 " fill-opacity="1" fill-rule="evenodd"/><path fill="#e7cf24" d="M 183.941406 105.492188 C 183.941406 104.417969 184.8125 103.550781 185.886719 103.550781 C 186.960938 103.550781 187.832031 104.417969 187.832031 105.492188 C 187.832031 106.566406 186.960938 107.4375 185.886719 107.4375 C 184.8125 107.4375 183.941406 106.566406 183.941406 105.492188 " fill-opacity="1" fill-rule="nonzero"/><path fill="#090079" d="M 183.957031 105.871094 C 185.660156 107.242188 187.085938 106.710938 187.703125 105.058594 C 187.972656 105.414062 188.542969 107.632812 185.964844 107.890625 C 184.105469 108.078125 183.957031 105.871094 183.957031 105.871094 " fill-opacity="1" fill-rule="nonzero"/><path fill="#090079" d="M 184.757812 105.144531 C 184.832031 104.632812 185.304688 104.273438 185.816406 104.347656 C 186.328125 104.417969 186.683594 104.890625 186.613281 105.40625 C 186.542969 105.917969 186.066406 106.273438 185.554688 106.203125 C 185.042969 106.128906 184.6875 105.65625 184.757812 105.144531 " fill-opacity="1" fill-rule="nonzero"/><path fill="#ffffff" d="M 185.371094 105.242188 C 185.371094 105.050781 185.527344 104.894531 185.722656 104.894531 C 185.914062 104.894531 186.070312 105.050781 186.070312 105.242188 C 186.070312 105.4375 185.914062 105.59375 185.722656 105.59375 C 185.527344 105.59375 185.371094 105.4375 185.371094 105.242188 " fill-opacity="1" fill-rule="nonzero"/><path fill="#ffffff" d="M 185.183594 105.257812 L 184.03125 105.257812 C 184.019531 105.640625 184.101562 105.878906 184.277344 105.972656 L 185.183594 105.257812 " fill-opacity="1" fill-rule="evenodd"/><path fill="#090079" d="M 164.910156 176.296875 C 167.96875 187.261719 168.433594 195.710938 166.3125 201.644531 C 164.589844 201.089844 162.894531 200.46875 161.234375 199.785156 C 163.972656 195.890625 165.199219 188.0625 164.910156 176.296875 Z M 131.136719 175.785156 C 133.300781 174.21875 135.011719 171.0625 136.265625 166.316406 C 137.222656 173.0625 136.425781 177.425781 133.878906 179.402344 C 132.925781 178.226562 132.011719 177.023438 131.136719 175.785156 Z M 122.808594 160.070312 C 125.097656 159.191406 127.558594 157.117188 130.179688 153.851562 C 128.675781 159.125 126.761719 162.527344 124.441406 164.054688 C 123.859375 162.746094 123.3125 161.417969 122.808594 160.070312 Z M 118.722656 141.90625 C 121.363281 143.140625 125.238281 142.609375 130.347656 140.308594 C 126.019531 144.964844 122.34375 147.128906 119.320312 146.800781 C 119.066406 145.1875 118.867188 143.554688 118.722656 141.90625 Z M 154.988281 178.703125 C 154.941406 186.429688 152.410156 190.902344 147.394531 192.117188 C 146.269531 191.3125 145.167969 190.472656 144.09375 189.605469 C 149.164062 188.414062 152.796875 184.777344 154.988281 178.703125 " fill-opacity="1" fill-rule="nonzero"/><path fill="#ffffff" d="M 127.597656 110.480469 L 123.574219 109.8125 C 124.546875 107.429688 125.648438 105.117188 126.871094 102.878906 L 127.328125 102.773438 L 125.285156 106.703125 Z M 140.285156 100.328125 L 135.917969 99.601562 L 133.039062 102.964844 L 132.378906 98.585938 L 130.054688 97.621094 C 130.617188 96.78125 131.199219 95.949219 131.796875 95.136719 L 132.253906 94.90625 L 132.285156 94.476562 C 132.898438 93.664062 133.523438 92.867188 134.167969 92.082031 L 135.710938 93.648438 L 140.019531 92.617188 L 137.976562 96.550781 Z M 122.394531 123.027344 L 120.996094 126.988281 L 118.976562 127.496094 C 119.113281 126.382812 119.273438 125.277344 119.460938 124.179688 L 122.394531 123.027344 " fill-opacity="1" fill-rule="nonzero"/><path fill="#ffffff" d="M 208.84375 104.78125 C 209.496094 106.84375 204.261719 105.316406 202.734375 107.835938 C 203.007812 104.960938 205.042969 103.941406 208.84375 104.78125 " fill-opacity="1" fill-rule="evenodd"/><path fill="#ffffff" d="M 209.554688 106.425781 C 209.699219 110.261719 207.464844 112.867188 202.855469 114.242188 C 206.265625 112.265625 208.5 109.660156 209.554688 106.425781 " fill-opacity="1" fill-rule="evenodd"/><path fill="#ffffff" d="M 206.070312 116.882812 C 212.816406 116.882812 222.203125 110.8125 231.917969 113.351562 C 228.230469 108.867188 222.25 107.527344 213.976562 109.328125 C 214.402344 112.234375 211.769531 114.75 206.070312 116.882812 " fill-opacity="1" fill-rule="evenodd"/><path fill="#ffffff" d="M 233.746094 108.4375 C 234.65625 109.742188 234.9375 111.339844 234.589844 113.234375 C 235.273438 113.558594 235.761719 114.46875 236.046875 115.964844 C 236.136719 111.90625 235.371094 109.398438 233.746094 108.4375 " fill-opacity="1" fill-rule="evenodd"/><path fill="#ffffff" d="M 183.582031 135.515625 C 187.980469 136.597656 191.035156 137.800781 192.742188 139.125 L 190.539062 139.363281 C 187.695312 138.496094 185.378906 137.210938 183.582031 135.515625 " fill-opacity="1" fill-rule="evenodd"/></svg>